<?xml version="1.0" encoding="UTF-8"?>
<svg id="Layer_1" data-name="Layer 1" xmlns="http://www.w3.org/2000/svg" viewBox="0 0 598.6755 159.7412">
  <path d="M0,159.7412V0h45.9873l69.2218,113.2723h1.9369L115.4499,0h34.3662v159.7412h-42.836L34.6122,41.6294h-2.1803l1.6961,118.1118H0Z" style="fill: #fff;"/>
  <path d="M368.8854,159.7412L316.3651,0h37.9991l37.0307,130.4528h2.6645L430.844,0h37.5175l-51.7979,159.7412h-47.6782Z" style="fill: #fff;"/>
  <polygon points="440.1409 159.7412 494.8389 0 543.9723 0 598.6755 159.7412 560.9225 159.7412 520.7405 28.0766 518.3168 28.0766 478.3808 159.7412 440.1409 159.7412" style="fill: #fff;"/>
  <path d="M240.5654,0C196.4541,0,160.6948,35.7593,160.6948,79.8703v.0003c0,44.1113,35.7593,79.8706,79.8706,79.8706s79.8706-35.7593,79.8706-79.8706v-.0003C320.436,35.7593,284.6767,0,240.5654,0ZM262.9944,87.9737c-6.6144,2.8042-11.9339,8.1106-14.4237,14.9799-1.9542,5.3911-.9802,16.4715-8.693,15.9549-6.8081-.4564-6.0118-11.3277-8.0285-16.6383-1.874-4.936-5.8858-10.8114-10.6406-13.2924-4.4368-2.3147-16.4538-3.4507-18.092-7.2079-.884-2.0278-.4371-4.8366,1.0663-6.4525,1.6974-1.8246,11.1412-3.3107,14.6082-4.8785,6.3799-2.8847,10.6838-7.6009,13.3369-14.0151,1.7697-4.2781,2.0975-12.8068,5.7746-14.7349,8.3108-4.3576,8.5287,8.7528,10.1999,13.5567,2.0687,5.9454,6.6845,11.5443,12.3648,14.304,5.4602,2.653,18.3007,2.8441,17.9925,9.9411-.2719,6.2611-10.5448,6.3969-15.4654,8.4829Z" style="fill: #fff;"/>
</svg>