<?xml version="1.0" encoding="UTF-8"?>
<svg id="Layer_1" data-name="Layer 1" xmlns="http://www.w3.org/2000/svg" viewBox="0 0 600 400">
  <path d="M396.21,50.68c.9-.13,1.48-.82,2.14.22l-1.65,1.12,5.75,59.05-31.91,3.42c-1.43,6.97-5.32,13.64-9.86,19.03,4.47.49,2.96,3.83,2.43,7.14-1.29,8.07-6.98,29.31-12.92,34.6-7.62,6.77-19.59-1.15-26.55-5.56-.33-.11-.22.32-.23.65-.19,6.53,4.53,17.07,4.73,23.99.06,2.06-.23,2.39-2.16,2.99,14.59,46.06,25.21,93.29,37.15,140.1l.06,1.76c-.62.54-3.6.54-3.33,1.5.12.45,1.17,3.49,1.32,3.62.19.17,3.94.95,4.87,1.33,5.34,2.16,17.48,5.92,21.37,9.03,5.82,4.64,4.1,12.79-2.48,15.48-8.33,3.39-26.04.58-35.11-1-1.86-.33-7.66-1.1-8.62-2.51-2.82-4.19-2.64-15.48-2.8-20.53l-4.76.18-31.95-113.1.8-16.74,7.22-2.64-.68-1.29-8.33,3.29-2.57,64.99c-.66,16.68-1.05,33.41-1.68,50.13-.16,4.24.08,10.75-.43,14.56-.35,2.62-2.51,1.58-2.61,2.14.33,5.9,2.87,13.69,1.52,19.48-.54,2.33-4.54,3.61-6.65,4.47-8.16,3.36-29.87,10.42-37.04,4.09-6.62-5.86,1.61-12.17,6.02-15.84,3.98-3.31,8.61-6.42,12.84-9.42l1.92-4.93-4.01-.28c-.56-.14-.61-.52-.7-1.01-.4-2.17-.08-7.36-.02-9.87.9-38.57-.19-77.1-2.56-115.57-.28-4.63-1.15-9.26-.85-13.92-1.6.1-3,.28-3.32-1.61l-6.96-48.91c-11.36,2.29-24.93,9.08-35.96,3-.41,2.35,3.1,8.76.83,10.04l-52.41,13.52c-1.62.64-5.08,4.13-6.07,4.22-.56.05-.67-.23-1-.59l1.7-1.92-13.48,3.02-11.48-3.11-8.37-77.14c.41-1.2,10.55-2.79,12.36-3.27-1.04-2.87-2.09-5.77-2.52-8.82-1.24-8.91,1.34-15.98,7.65-22.22,2.84-2.81,5.9-5.28,9.76-6.51,18.91-6.03,29.02,9.13,32.22,25.55.76.67,10.44-3.15,11.97-2.36.28.14.47.41.62.68l13.5,51.35c1.32-9.15,2.13-19.65,4.66-28.52.56-1.98.84-4.47,3.48-3.59-.76-3.53-.21-7.15-1.04-10.72-1.01-4.3-6.33-10.04-1.97-13.92.55-.49,1.32-.47,1.61-.73.44-.39.34-1.4,1.23-1.98,1.12-.74,3.42-.33,3.58-.49.24-.24-.41-2.16,1.94-3.02,1.12-.41,1.7-.08,2.79.04-.45-2.37-1.11-11.12.44-12.62,2.7-2.62,5.25,2.16,6,4.26,2.17,5.99,1.68,12.14,4.35,17.91,1.58,3.41-.46,5.47-1.25,8.78-.98,4.12-1.67,8.32-2.26,12.5l2.6.19.42,1.29-2.16,22.5c10.14-5.39,21.41-9.19,32.96-9.84.19-4.29-1.49-8.35-2.6-12.41-6.92,1.72-11.4-9.41-3.41-10.92l-2.61-8.3c-4.18.3-3.44-3.63-1.46-6.05,1.23-1.5,6.03-6.06,7.64-6.92,5.09-2.72,11.03-2.88,16.14-.14,2.15,1.15,4.37,2.85,4.33,5.58-.02,1.13-.75,1.86-.75,2.14,0,.69,3.36,8.47,3.83,10.14.17.59.36,1.17.33,1.79-.07.36-5.35,1.71-6.27,1.95-4.21,1.09-11.95,3.42-15.91,3.79-2.74.25-5.32-3.6-7.17-1.18-2.27,2.96,1.71,7.89,4.48,6.63.6-.27,1.11-1.84,1.93-.65.35.51,2.34,8.21,2.58,9.41.34,1.77.54,6.7,1.04,7.53,2.1,3.47,10.67,3.47,13.8,1.32,4.06-2.78.76-5.17.32-8.8-.3-.26-7.27.53-6.81-1.54.27-1.23,2.79-.2,3.62-.2,7.06,0,9.19-6.45,8.33-12.61-.09-.67-2.52-5.52-.19-4.52.82.35,1.7,3.64,1.83,4.59.59,4.34.23,8.19-2.93,11.41-1.33,1.36-2.85.62-2.35,3.27.98,5.22,5.3,3.09,9.47,3.39,8.94.64,14.93,3.69,21.81,9.02,6.25,4.85,12.08,10.56,17.99,15.82.92.02,4.37-14.49,6.06-15.8l1.43.4c-.06-4.41-3.02-8.46-1.71-12.84-13.72,1.97-27.65,3.4-41.53,3.43l-8.77-94.19,98.81-10.2.92.81,3.66,33.8ZM391.5,17.72l-97.19,9.42,9.39,92.3,40.05-4.11c3.1-1.19,7.02-9.17,9.85-9.44,5.39-.52,3.26,6.21,1.94,9.03l45.2-5.11-9.24-92.08ZM177.86,92.21l7.62-1.91c-1.92-6.26-3.56-13.09-7.83-18.22-7.02-8.42-16.69-8.99-26.33-4.7v.85c15.35-4,24.73,10.63,26.54,23.98ZM236.94,83.65c.56-.78-2.05-12.5-2.68-14.22-.54-1.46-3.25-7.07-3.75-2.71-.35,3.01,0,12.43,1.26,15.05.9,1.85,3.53,1.02,5.18,1.88ZM146.61,100.35l29.79-7.69c-1.93-12.25-8.79-25.03-23.15-23.56-4.86.5-7.46,2.85-8.9,7.37-2.71,8.51.64,15.62,2.26,23.88ZM145.33,100.77c-.92-4.63-2.94-9.72-3.37-14.39-.3-3.21.2-6.4.16-9.58-5.39,7.6-3.93,16.57-1.07,24.83l4.28-.86ZM230.09,82.36c-.21-2.6-.6-5.24-3.79-3.79l-.06,4.22,3.85-.43ZM228.33,93.02c1.25-2.59-1.84-4.27-2.62-6.49-.52-1.47-.36-3.14-.96-4.6-1.22-.87-2.99-.7-3.47.85-.77,2.46,3.02,11.6,7.05,10.24ZM222.39,107.63c2.06-1.23,11.95.64,12.66-.4.64-6.08,1.7-12.17,4.04-17.84.51-5.08-8.46-5.72-11.95-5.27-.62,4.2,3.92,4.9,6.76,6.45-.68,3.07-2.78,5.91-2.51,9.36h-1.28c-.4-3.04.7-5.55,1.66-8.31l-1.45-1.11c-.46,1.61.34,3.12-1.61,3.95-1.83.78-2.81-.36-3.88-.14-.42.09-.38,1.05-.98,1.25-.78.27-1.89-.03-2.73.07,1.38,3.84,1.34,7.97,1.29,11.98ZM219.82,84.08c-2.46.45-1.7,3.47-1.16,5.23s2.14,5.34,4.34,4.59l.47-.82c-1.97-2.54-3.61-5.74-3.65-9ZM288.32,90.49l-2.35-5.55c-7.06,3.16-14.88,4.25-22.49,5.34l1.96,6.21,22.87-6.01ZM147.9,183.83l69.61-17.96c.52-.71-1.4-7.6-1.78-9.02-.66-2.49-1.45-3.35-2.12-5.55s-.73-4.64-1.27-6.86c-4.47-18.43-9.36-36.75-14.33-55.05l-10.72,2.4c.83,1.21.82,4.66,1.5,5.56.52.68,1.89.22,2.27,2.03.46,2.15-1.01,3.21-3.04,2.6-2.11-.64-.69-3.35-.75-4.78-.03-.63-1.19-4.96-1.53-5.01l-38.25,9.46c-.26.29.98,4.68,1.28,5.22.42.75,2.03.92,2.15,2.28-.4,3.25-4.91,3.24-4.3-.42.1-.62.76-1.08.76-1.66-.01-1.18-1.58-3.58-1.63-5l-16.69,3.86,18.84,77.92ZM352.57,119.58c-.87-1.2,3.33-8.87,2.98-10.87-.25-1.42-1.31-1.32-2.39-.68-.92.54-7.43,7.68-7.98,8.71-2.14,3.95,1.34,9.19,1.45,13.49l12.49,3.11c4.21-5.53,8.12-11.6,9.7-18.44l-14.06,1.78-.5,2.07c2.49.04,3.41,3.01,3.42,5.14-2.24.43-1.67-2.59-3.02-3.61-.54-.41-1.96-.53-2.08-.7ZM238.23,109.34l-18.37-.39c-2.04,9.2-4.3,18.59-5.18,28-1.5,16.03,1.28,23.29,18.93,20.65,6.63-.99,13.1-3.35,19.55-5.06l.04-2.1h1.27s7.76,52.62,7.76,52.62c1.12.95,25.75-1.74,29.23-2.15,11.86-1.38,23.65-3.36,35.38-5.52l-10.62-52.56.56-1.81c1.05-.02.9.83,1.09,1.47,2.37,7.87,2.84,16.89,5.11,24.85,5.51,3.5,13.57,9.24,20.33,9.21,8.7-.04,13.15-16.29,15.08-23.02.67-2.35,4.52-17.03,3.53-18.05l-17.95-4.3-8.36,24.41-1.08-.24,2.43-8.13c-.13-1.2-15.89-14.35-18.06-16.03-8.68-6.73-16.88-10.16-28.17-8.93-.92.32-.98,1.86-1.57,2.71-3.1,4.48-12.36,4.61-16.48,1.49-.92-.7-1.94-2.52-2.36-2.78-1.11-.67-6.98.46-8.64.77-5.39,1-12,3.08-17.04,5.22-1.3.55-6.35,2.88-7.09,3.61-1.11,1.09-.75,6.17-1.05,7.94-.37,2.2-2.3.57-1.72-1.27l3.43-30.62ZM146.61,183.83l-16.69-68.07,6.47,64.81c.33,1,8.76,2.23,10.22,3.26ZM334.51,243.29c.33-.57-.05-1.31-.59-1.66-.24.74-4.93,3.03-4.07,3.84.74.07,4.53-1.96,4.66-2.19ZM325.57,248.9l-1.02-1.24c-.52.84-4.29,2.18-4.11,3.17s.96.35,1.4.13c1.23-.61,2.35-1.71,3.73-2.06ZM315.72,254.47c-.53-2.06-5.7,1.12-5.56,1.93.17,1,.97.32,1.39.12,1.38-.64,2.67-1.71,4.17-2.04ZM296.42,264.27l-.6-1.22c-.55.77-5.7,2.32-5.35,3.2s.95.53,1.58.32c.5-.17,4.24-2.08,4.37-2.29ZM280.19,271.6c1.93.15,3.47-1.21,5.14-1.94v-1.49c-.38.31-6.14,2.57-5.14,3.42ZM269.91,275.03l.42,1.07.57.16c7.14-2.84,4.59-3.81-1-1.23ZM354.26,349.94c-.54-2.44,5.24-4.02,5.5-5.41l-1.85-3.91-17.76,4.63c-.16,5.21-.03,10.4.91,15.53l.64.64c11.29,2.53,23.4,4.81,35.05,3.95,4.2-.31,9.79-1.67,12.56-5.03-.69-4.36-5.6-6.35-9.26-7.72-1.16-.44-4.53-1.77-5.5-1.81-2.26-.09-4.74,3.82-6.23,5.27-1.28,1.26-2.44.5-1.87-.59.89-1.72,4.04-3.81,5.36-5.35.2-.93-.39-.55-.94-.75-1.05-.38-3.29-1.37-4.18-.97l-6.65,5.79c-.72-.55-.82-.85-.43-1.7.8-1.72,5.2-3.62,6.21-5.56-1.61-.01-3.19-1.12-4.82-.79-1.53.31-5.75,4.72-6.74,3.78ZM269.04,361.95l-.63,1.68c-1.8-.97-7.02-3.73-8.78-3.24-1.3.36-6.53,4.99-7.5,6.24-1.53,1.97-2.35,3.19.2,4.53,5.9,3.09,21.7-1.54,28.18-3.55,2.3-.71,11.89-3.53,12.73-5.25.36-4.91-.74-10.15-1.71-15l-17.72-1.64-1.77,5.08c.58-.03,1.15.02,1.71.22.66.23,6.5,2.34,5.14,3.64-5.03-1.02-8.01-4.88-12.41.43,1.26-.12,7.5,1.91,7.71,2.79l-.65,1.06c-2.71-.64-6.81-3.43-9.51-2.24-.96.42-1.47,1.73-2.67,1.82l7.69,3.44ZM342.79,366.12c.77.54,9.62,1.92,11.31,2.18,7.58,1.15,25.69,3.65,31.98-.44,1.63-1.06,2.98-3.04,2.85-5.07-7.69,5.27-18.23,4.69-27.18,3.85-6.62-.62-13.2-2.09-19.69-3.43-.62.37.53,2.76.74,2.9ZM250.65,372.21c2.04,4.9,9.4,4.62,13.93,4.29,5.91-.42,21.23-4.95,26.48-7.77,2.27-1.22,2.71-1.93,2.4-4.66-3.88,2.54-8.52,3.89-12.94,5.25-9.18,2.83-20.61,6.23-29.87,2.89Z"/>
  <path d="M202.69,215.51l3.27-12.45,26.32,10.06.39.9-13.69,55.66c-3.61,16.25-23.93,19.47-29.62,2.84-3.39-.46-6.89-2.07-10.07-3.42-11.91-5.06-23.56-10.84-35.47-15.91l-.1-1.82,12.78-25.99,20.51,8.53c-1.89-2.94-18.03-19.44-17.97-21.2.04-1.48,19.46-17.61,21.84-20.11l1.04-.24,20.78,23.14ZM181.57,194.15l-20.8,18.64,9.6,11.28,21.13-18.25-.79-1.65-9.13-10.02ZM227.95,227.07c.19-2.09,3.54-11.67,2.81-12.85l-24.21-9.41-2.83,12.86,24.22,9.41ZM192.71,207.01l-21.19,18.14,9.61,10.86,20.52-17.03-.03-2.16-8.91-9.8ZM227.51,228.38l-24.38-9.01-3.47,14.27,24.43,9.7,3.41-14.96ZM193.7,250.19l6.85-27.83-17.94,14.85.36,1.23,10.72,11.75ZM173.15,233.5c-1.14-1.07-2.62,2.62-2.93,3.27-2.95,6.01-7.97,15.27-10,21.26-.27.81-.58.93.32,1.58l12.62-26.11ZM223.68,244.64l-24.83-9.43-3.33,13.93,24.1,10.46,4.07-14.96ZM176.58,266.88l1.29.25c.63-.98,1.15-2.04,1.65-3.09,2.25-4.72,6.21-12.06,7.67-16.75.33-1.07.54-1.52.09-2.67l-10.7,22.26ZM219.34,260.95l-24.34-9.9-4.7,18.25c.42,5.92,5.28,11.96,11.33,12.57,12.48,1.25,16.28-10.88,17.71-20.92Z"/>
  <path d="M445.87,122.18c-3.57-8.94-8.54-19.61-4.65-29.27,3.5-8.69,14.24-10.85,19.99-2.98,7.5,10.25-2.76,25.05-8.92,33.53,30.18,9.63,32.16,53.71,10.28,73.01-32,28.23-66.64-9.75-54.07-46.36,3.81-11.11,17.52-27.93,30.3-27.93h7.06ZM450.47,86.75c-11.41,1.75-9.33,17.67-6.85,25.48.52,1.65,3.3,9.29,4.26,9.86s2.46.81,3.34.07c1.39-1.16,5.68-8.06,6.72-9.98,3.44-6.38,6.91-15.92,1.43-22.13-2.2-2.49-5.57-3.83-8.89-3.32ZM447.16,123.47h-6.21c-16.84,0-30.39,20.15-32.99,35.09-5.37,30.9,22.37,59.8,51.33,38.48,24.64-18.15,21.9-65.37-10.41-73.14l-.88,7.83c2.81,1.49,4.47,4.87,1.53,7.16-3.42,2.65-7.78-1.11-6.55-5.27.52-1.76,3.42-1.83,3.71-2.71l.48-7.44ZM445.3,133.38c-3.83,3.2,3.79,7.16,4.04,2.72.13-2.32-2.04-3.09-4.04-2.72Z"/>
  <path d="M456.49,228.91c2.16-.21,4.45-.78,5.12,1.91l8.21,53.04c.01,2.63-2.18,2.64-4.16,3.03-27.03,3.53-53.85,8.9-80.86,12.47-2.86.38-7.22,2.05-8.17-1.53-1.66-17.09-6.64-34.77-8.23-51.74-.43-4.6,1.05-4.07,4.98-4.81,27.55-2.95,55.64-9.73,83.11-12.36ZM468.09,284.83l-8.78-54.73-89.65,13.24,9.27,55.19,89.16-13.7Z"/>
  <path d="M251.91,25.44l-.39,1.93-9.78,10.31c-.22,1.14,3.76,10.61,4.1,12.89.24,1.62.39,2.99-1.62,2.49-2.61-.66-10.84-6.7-12.63-6.64-2.91.94-10.07,7.96-12.44,8.12-.48.03-.97.04-1.27-.41-.98-1.44,1.97-12.51,1.71-15.03l-11.32-8.33c-1.09-1.41-.28-2.25,1.18-2.67,3.72-1.08,8.98-1.03,12.89-1.88l5.21-14.71c.99-.85,1.77-.47,2.5.49,1.46,1.92,5.43,12.15,6.47,12.79l15.4.66ZM249.36,26.71h-13.49l-7.49-13.27-4.89,14.17-13.1,2.1,11.08,8.86-1.87,13.83c2.74-1,9.67-7.74,11.98-7.73,1.98,0,12.18,7,12.63,6.45l-4.2-13.82c.27-1.72,7.19-7.32,8.71-9.29.33-.43.83-.54.64-1.29Z"/>
  <path d="M286.82,103.78c1.13.77.52,1.68-.03,2.54-2.2,3.43-8.05,3.46-10.46.23l.65-1.06c4.06,2.95,6.9,2.03,9.84-1.7Z"/>
  <path d="M300.74,387.63c1.32,1.75-5.8,1.27-6.42,1.28l.19-1.31.52-.34,5.71.37Z"/>
  <path d="M139.33,203.96c.81.92-3.36,5.7-4.06,5.56-.46-.09-.75-.71-.44-1.29.24-.45,3.98-4.87,4.5-4.27Z"/>
  <path d="M443.31,47.26v1.28s-6.42-.43-6.42-.43c.46-2.57,4.66-.79,6.42-.85Z"/>
  <path d="M311.87,387.2v1.28c-1.15-.27-6.1,1.3-6.42-.22-.37-1.78,5.34-.85,6.42-1.06Z"/>
  <polygon points="357.25 382.91 357.25 384.19 350.83 385.05 351.08 383.73 357.25 382.91"/>
  <path d="M150.47,192.82c-.71-.71,2.59-3.83,3.21-4.28.7-.5,1.29-1.23,1.92-.21.11.57-4.35,5.27-5.13,4.49Z"/>
  <path d="M381.06,207.84c.56-.08,1.13.5,1.02,1.03l-4.92,3.63c-2.55-.09,3.3-4.57,3.9-4.66Z"/>
  <path d="M131.42,212.95c2.61-.56-1.16,4.17-1.71,4.71-.96.93-2.2,1.24-1.58-.28.25-.6,2.97-4.36,3.29-4.43Z"/>
  <path d="M354.68,227.93c.85.84-3.33,3.65-3.97,3.95s-1.44.44-1.59-.32,4.93-4.26,5.56-3.63Z"/>
  <path d="M435.17,312.27c-.61.61-5.98-3.85-5.13-4.71,1.34-.32,6.03,3.81,5.13,4.71Z"/>
  <path d="M368.38,380.77l-.25,1.32c-1.46.29-3.07.81-4.54.97-.48.05-1.45.51-1.63-.37-.3-1.47,5.4-1.72,6.42-1.92Z"/>
  <path d="M220.57,317.51c.5-.05,1.39.03,1.38.54-.01.81-3.94,1.89-4.8,2.05-.5.09-1.42.58-1.61-.34-.21-1.07,4.24-2.18,5.03-2.25Z"/>
  <path d="M384.23,377.77l.29-1.29c1.57-.16,3.03-1.05,4.52-1.4.52-.12,1.44-.53,1.61.34.26,1.3-5.4,2.37-6.42,2.35Z"/>
  <path d="M244.2,382.95c.22.34.36,1.31-.61,1.25-.89-.05-6.03-.7-5.78-1.92.18-.88,1.15-.43,1.63-.37.67.07,4.63.84,4.76,1.04Z"/>
  <path d="M420.62,47.26v1.27c-1.65.25-3.49.62-5.15.68-1.76.06-1.72-1.21-.19-1.51.71-.14,5.15-.63,5.34-.44Z"/>
  <path d="M334.56,387.19c-1.88-.58-5.9,1.91-6.42-.85l5.8-.76.62,1.61Z"/>
  <path d="M486.34,71.24c1.13-.22,2.16,4.12,2.33,4.95.08.4.79,1.28-.2,1.47-.93.17-2.17-3.97-2.44-4.84-.24-.8-.64-.9.31-1.58Z"/>
  <path d="M426.61,303.72c-.19,2.89-4.82-1.15-5.98-1.93,1.95-1.98,3.96,1.66,5.98,1.93Z"/>
  <path d="M379.51,378.21l-.25,1.32c-1.27.08-5.42,2.15-6.17.6-.39-.81.84-.7,1.29-.83.76-.22,4.84-1.38,5.13-1.09Z"/>
  <path d="M442.02,321.26c-.09.09-.99.15-1.31-.27-.42-.54-2.92-4.91-2.54-5.3,1.74-.62,4.36,5.05,3.85,5.56Z"/>
  <path d="M222.39,379.06l-5.74-1.67-.25-1.32c.96-.19,7.44,1.53,5.99,2.99Z"/>
  <path d="M212.08,373.96l.03,1.24c-.42.43-7.35-1.99-5.99-3.42l5.96,2.18Z"/>
  <path d="M394.93,373.07c2.02-.02,4.7-2.75,6.41-1.08-.02.39-6.59,3.96-6.41,1.08Z"/>
  <path d="M410.99,366.66l.64,1.05c-.11.46-3.77,2.16-4.5,2.36-.43.12-1.31.72-1.49-.22-.22-1.19,4.51-2.61,5.35-3.19Z"/>
  <path d="M253.87,281.59c.4.05,1.43.96.64,1.35-1.52.29-2.91,1.25-4.38,1.63-1.92.5-2.35-.62-.25-1.54.56-.25,3.74-1.47,3.99-1.44Z"/>
  <path d="M415.91,365.36c-.13-.96-.02-1.11.7-1.65.59-.45,4.57-2.93,4.86-1.55.18.86-5.09,3.68-5.56,3.2Z"/>
  <path d="M187.71,359.8c.9-.9,4.38,3.54,5.13,4.07.08,2.38-6.16-3.03-5.13-4.07Z"/>
  <path d="M466,52.4l-.99,1.23c-.82-.62-5.39-1.85-5.42-2.73-.06-1.85,5.78,1.58,6.41,1.5Z"/>
  <path d="M255.35,385.91l-5.7-.51-.72-1.63c1.82.69,5.85-.17,6.42,2.14Z"/>
  <path d="M222.19,291.34l.63,1.02c-.13.59-4.06,1.39-4.9,1.53-.7.12-.86.73-1.51-.25-.28-1.5,4.89-1.72,5.79-2.3Z"/>
  <path d="M486.55,100.34c.05-.99.63-6.68,1.92-6.42.88.18.43,1.15.37,1.63-.05.45-1.15,6.13-2.29,4.79Z"/>
  <path d="M185.14,355.94c-.09.09-.99.14-1.31-.26-.45-.57-2.1-4.87-1.68-5.3,1.81-.96,3.24,5.32,2.99,5.56Z"/>
  <path d="M120.49,232.21c.29.28-1.77,4.87-2.11,5.3s-1.23.35-1.31.26c-.57-.57,2.12-6.83,3.42-5.56Z"/>
  <path d="M373.09,214.66c.19,1.09-.01.91-.53,1.41-.62.61-4.39,3.43-5.04,2.86-.1-1.45,4.92-4.93,5.56-4.28Z"/>
  <polygon points="189.43 297.29 189.43 298.57 183 299 183 297.72 189.43 297.29"/>
  <path d="M231.7,314.92c1.11.02,1.35,1.07.23,1.54-.53.23-5.71,1.46-5.68.3.02-.82,4.69-1.86,5.45-1.85Z"/>
  <path d="M201.84,370.49c-.44.43-4.51-1.96-5.04-2.44-.58-.52-.67-.37-.52-1.41.48-.49,6.74,2.68,5.56,3.85Z"/>
  <path d="M480.12,114.9c.57.61-2.47,5.79-3.63,5.56s-.06-1.47.2-1.93,2.71-4.39,3.43-3.63Z"/>
  <path d="M254.93,311.85l-.25,1.32c-1.92.5-4.18.64-6.17.39-1.11-1.53,5.58-1.63,6.42-1.71Z"/>
  <path d="M323.43,386.77c.11.58-.15,1.04-.71,1.21-.22.07-4.41.54-4.64.51-1.03-.1-1.19-.8-1.07-1.73h6.42Z"/>
  <path d="M454.86,48.98c1.43,1.86-6.77,1.09-6.42-.86,2.19-.21,4.31.35,6.42.86Z"/>
  <path d="M403.06,50.68v-1.28c.75.41,6.45-1.72,6.42-.22-.03,1.21-5.35,1.61-6.42,1.5Z"/>
  <path d="M488.91,82.8c1.9-.34,1.45,9.27-.66,5.36l.66-5.36Z"/>
  <path d="M191.56,331.11c.67.67-2.85,4.21-3.42,4.5s-1.19.02-1.29-.44c-.12-.59,3.94-4.82,4.71-4.06Z"/>
  <path d="M111.49,259.18h-1.27c-.32-.3.52-5.8,1.5-6.41,1.43-.04-.26,5.66-.22,6.41Z"/>
  <path d="M123.44,227.87l-1.23.06c-.61-.6,2.3-5.75,3.2-5.56,1.84.38-2.07,4.46-1.98,5.5Z"/>
  <path d="M363.67,221.08c1.18,1.39-4.36,4.94-5.13,4.28-.31-1.35,4.88-4.58,5.13-4.28Z"/>
  <path d="M147.04,195.82c.71.77-3.8,6.06-4.7,5.13-.19-.87.19-1.14.62-1.73.33-.44,3.67-3.85,4.08-3.4Z"/>
  <path d="M398.57,194.11l1.06,1.06-4.5,3.64c-1.8-1.76,2.64-3.25,3.43-4.7Z"/>
  <path d="M119.21,284.44c.69-.69,4.49,2.98,5.13,3.64.13,2.29-6.27-2.49-5.13-3.64Z"/>
  <path d="M144.44,295.61l.03,1.25c-.37.38-4.83-1.1-5.74-1.24l-.25-1.32,5.96,1.32Z"/>
  <path d="M243.8,313.13l-.29,1.29c-.7.05-6.18,1.59-6.13.21,1.55-1.51,4.34-1.17,6.41-1.5Z"/>
  <path d="M438.17,346.95c.74.71-3.19,5.3-4.06,5.13-1.02-.63-.29-1.22.21-1.92.4-.55,1.92-2.21,2.44-2.68.34-.32.85-1.06,1.41-.53Z"/>
  <path d="M473.7,124.32c.76.83-2.82,4.91-3.64,5.56-2.37.13,2.93-6.33,3.64-5.56Z"/>
  <path d="M430.4,356.32c-1.51.58-2.45,2.08-3.94,2.69-.51.21-.99.43-1.13-.29-.15-.77,3.72-3.42,4.5-4.05l.58,1.65Z"/>
  <path d="M346.12,384.63c.29,1.86-6.18,1.96-6.42,1.71v-1.28s6.42-.43,6.42-.43Z"/>
  <path d="M260.77,385.54c.89-.25,5.94.02,5.72,1.43l-4.73.03-1.48-.67c-.4-.29.23-.73.49-.8Z"/>
  <path d="M271.63,386.34c.93.08,6.41.29,6.41,1.07-.74.99-5.41.84-5.99.44l-.42-1.51Z"/>
  <path d="M111.5,264.32c-.43.91,1.2,6.44-.21,6.41-1.57-1.57-.71-3.9-1.4-5.79l1.61-.62Z"/>
  <path d="M390,200.97c2.54-.06-3.21,4.83-3.85,4.7-.3-.06-.98-.9-.44-1.29l4.29-3.41Z"/>
  <path d="M205.27,296c-.03-1.6,3.57-1.76,4.79-1.86.47-.04,1.45-.51,1.63.37.3,1.49-5.5,1.52-6.42,1.49Z"/>
  <path d="M116.21,281.02c-.69.78-3.45-3.84-3.64-4.28-.27-.6-.04-1.18.44-1.28.88-.18,3.79,4.89,3.2,5.56Z"/>
  <path d="M115.78,242.49c.34.34-1.54,6.95-2.99,5.56-.02-.99,1.62-6.92,2.99-5.56Z"/>
  <path d="M227.1,380.77v-1.28c.96-.02,6.28.48,5.99,1.92-.31,1.52-4.93-1.06-5.99-.64Z"/>
  <path d="M476.27,59.24c-.25.27-5.71-2.87-5.56-3.63.26-1.39,2.64.4,3.13.72.53.34,3.24,2.05,2.43,2.91Z"/>
  <path d="M200.55,325.12c1.27,1.27-4.9,3.98-5.56,3.42-.2-.91.46-.97.99-1.36.64-.47,4.08-2.55,4.57-2.06Z"/>
  <path d="M444.16,325.97c.28.26,1.02,5.84-.21,6.41-.45,0-2.19-6.8.21-6.41Z"/>
  <path d="M443.73,337.1c.47.55-.94,6.35-2.99,5.56-.3-.3,2.12-6.59,2.99-5.56Z"/>
  <path d="M408.2,187.69c.54.55-.22,1.07-.53,1.41-.34.37-2.94,2.47-3.32,2.66-.58.3-1.19.03-1.28-.44-.17-.83,4.59-4.19,5.13-3.63Z"/>
  <path d="M227.53,291.29l.25-1.32c.62-.02,5.8-2.17,5.74-.6-.54.97-5.66,2.25-5.98,1.92Z"/>
  <path d="M244.22,285.3l-.25,1.32c-1.27-.04-4.99,2.66-5.73,1.03-.35-.76.72-.76,1.17-.94.7-.28,4.56-1.68,4.82-1.4Z"/>
  <path d="M345.26,234.35c1.06,1.1-4.58,4.4-5.13,3.85-1.1-1.09,4.75-4.24,5.13-3.85Z"/>
  <path d="M155.6,298.57l-6.42-.43v-1.28c.24-.25,6.71-.15,6.42,1.71Z"/>
  <path d="M282.75,388.48v-1.28c1.14.18,6.18-.53,6.42.65.05.62-.35.97-.96.98-1.48.03-3.75-.73-5.46-.35Z"/>
  <path d="M485.69,105.06c.21.19-1.78,4.88-2.11,5.3s-1.22.35-1.31.26c-.31-.29,1.95-6.92,3.42-5.56Z"/>
  <path d="M133.73,292.19l.03,1.24c-.41.42-5.78-1.5-5.56-2.77.17-.97.99-.32,1.42-.15,1.36.57,2.61,1.42,4.11,1.68Z"/>
  <path d="M184.71,340.1c.16.16-.82,3.75-.99,4.36-.13.44-.18,1.56-.93,1.19-1.58-.76.5-6.93,1.92-5.56Z"/>
  <path d="M264.34,278.02c.09.09.14.99-.26,1.31-.36.29-5.35,2.48-5.29,1.04.03-.8,5.09-2.84,5.55-2.35Z"/>
  <path d="M166.74,298.14v1.28c-1.14-.18-6.18.53-6.42-.65l.88-.9,5.55.26Z"/>
  <path d="M426.02,46.89c.74-.23,6.14-.3,6.14.58-.83,1.12-6.84.85-6.83,0,.21-.21.39-.49.69-.58Z"/>
  <path d="M483.98,66.95c-.6.67-4.92-4.49-4.28-5.13.55-.55,1.27.36,1.64.71.56.52,3.17,3.82,2.63,4.43Z"/>
  <path d="M210.83,320.84l-.25,1.32c-1.11-.05-4.66,2.59-5.31,1.03-.31-.76,1.35-1.07,1.73-1.25.6-.28,3.43-1.51,3.83-1.09Z"/>
  <path d="M171.87,299.43v-1.28c.95.14,6.42-.46,6.42.64-1.66,1.34-4.42.35-6.42.64Z"/>
  <path d="M305.87,257.9c1.34,1.4-5.15,3.95-5.13,2.35.01-.73,4.13-2.59,5.13-2.35Z"/>
  <path d="M200.55,296c1.4,1.21-5.34,1.99-5.99,1.71-.34-1.81,5.74-1.92,5.99-1.71Z"/>
  <path d="M265.63,311.42v1.28c-1.87-.27-4.46.68-5.99-.64,0-1.08,5.07-.52,5.99-.64Z"/>
  <path d="M284.26,99.92c1.79-.56,2.66,2.99.42,3.01-1.49.01-1.37-2.72-.42-3.01Z"/>
  <path d="M296.42,264.27c-.14.21-3.88,2.12-4.37,2.29-.64.22-1.23.58-1.58-.32s4.8-2.42,5.35-3.2l.6,1.22Z" style="fill: #fff;"/>
  <path d="M280.19,271.6c-.99-.85,4.76-3.12,5.13-3.42v1.49c-1.66.72-3.2,2.09-5.13,1.94Z" style="fill: #fff;"/>
  <path d="M269.91,275.03c5.58-2.58,8.13-1.61,1,1.23l-.57-.16-.42-1.07Z" style="fill: #fff;"/>
  <path d="M325.57,248.9c-1.38.34-2.5,1.44-3.73,2.06-.44.22-1.22.84-1.4-.13s3.59-2.33,4.11-3.17l1.02,1.24Z" style="fill: #fff;"/>
  <path d="M315.72,254.47c-1.51.33-2.79,1.4-4.17,2.04-.42.2-1.22.88-1.39-.12-.14-.8,5.03-3.98,5.56-1.93Z" style="fill: #fff;"/>
  <path d="M334.51,243.29c-.13.22-3.91,2.25-4.66,2.19-.86-.81,3.83-3.11,4.07-3.84.54.35.92,1.09.59,1.66Z" style="fill: #fff;"/>
  <path d="M286.94,138.57c28.86-3.5,31.79,38.85,5.82,41.36-27.55,2.66-30.45-38.37-5.82-41.36ZM305.01,167.13c4.25-8.38.79-19.31-7.91-23.12-15.6-6.85-29.51,10.85-20.52,24.8,6.33,9.82,22.46,9.09,28-1.04.06-1.31-.46-.3-.78.08-.63.74-1.61,2.62-2.8,2.26s-1.96-5.12-4.21-5.03c-3.33.13-7.86,1.97-11.38,2.15-1.27,2.3.32,7.34-3.63,5.37-1.67-.83-1.7-1.75-1.56-3.48.42-5,2.39-13.59,3.67-18.6,1.01-3.94,1.56-7.44,6.77-5.64l14.34,22.26ZM295.17,160.71l-5.47-8.87-1.38-1.4-2.14,11.56,8.99-1.28Z"/>
  <path d="M348.18,35.38c25.74-.24,42.08,26.92,29.84,49.56-9.79,18.11-35.3,23.57-51.37,10.25-24.91-20.63-10.52-59.51,21.53-59.81ZM370.53,85.36c17.65-23.24-9.8-54.91-35.4-40.74-16,8.85-19.82,29.98-7.63,43.74.94.2.55-.4.75-.94,4.42-12.12,8.28-24.46,12.65-36.59,1.22-3.96,9.19-4.3,11.4-1.39l18.22,35.94ZM356.39,72.51l-9.41-17.12-6,17.98c5.05-1.18,10.24-1.81,15.41-.86ZM334.15,93.47c7.9,3.63,16.89,4.5,24.97.82,1.15-.53,5.39-2.85,5.41-3.99l-5.55-11.58c-6.81-1.18-14.47-1.18-20.76,1.94l-4.06,12.81Z"/>
  <path d="M170.49,114.59c32.08-3.84,35.54,43.45,4.58,45.25-28.38,1.65-32.33-41.93-4.58-45.25ZM184.13,123.5l-11.83,18.62c-1.42.73-6.49-4.3-8.33-4.11-1.1.11-3.2,3.18-2.61,4.29,2.24,1.3,10.03,7.33,12.02,7.32.49,0,.94-.08,1.31-.43l13.7-21.41-.02-1.74-4.24-2.53Z"/>
  <path d="M203.02,264.82c4.73-.77,6.43,6.96,1.94,7.97-6.14,1.38-6.94-7.15-1.94-7.97ZM203,266.54c-1.78.52-2.51,3.71-.33,4.44,4.92,1.64,4.06-5.52.33-4.44Z"/>
  <path d="M438.49,145.41c23.16-3.13,31.65,26.75,13.23,37.64-16.57,9.79-33.34-5.42-28.84-23.28,1.66-6.58,8.84-13.44,15.61-14.36ZM445.09,155.08l.72-4.44-2.08-.63-.83,4.09c-6.43.06-10.57,6.63-4.62,10.99,2.26,1.66,10.29,4.42,5.05,8.28-2.6,1.92-6.93-.77-8.8-2.8l-1.74,2.57,5.32,2.62-.37,5.08,1.68-.02c-.02-5.43,2.8-3.47,5.74-5.18,2.75-1.6,3.91-5.3,2.18-8.05-1.89-3.01-10.49-3.99-8.53-8.57,1.35-3.15,7.09-1.62,9.05.38l1.85-1.89-4.63-2.42Z"/>
  <path d="M398.25,248.59c30.37-4.12,26.43,43.79-1.8,35.83-19.04-5.37-15.8-33.44,1.8-35.83ZM392.79,278.02l4.4-22.36c.73-1.83,2.84-2.02,4.49-1.33s9.59,15.58,11.77,17.83c.85,1.13-.88,4.17-2.03,4.17-1.56,0-2.26-3.81-3.5-4.24-.63-.22-10.06,1.28-10.34,1.72l-.93,5.49c-.23.23-3.35-1.02-3.85-1.29,7.56,7.22,21.59,1.85,23.01-8.46,2.55-18.57-22.24-23.87-27.73-7.61-1.83,5.41-.69,13.22,4.73,16.07ZM405.2,267.74l-4.1-6.82-1.04-.89-1.72,8.99,6.85-1.28Z"/>
  <path d="M455.29,257.47l-.43,1.5c-7.78,1.1-15.59,2.63-23.4,3.57-1.72.21-5.78.72-2.15-1.29l25.98-3.77Z"/>
  <path d="M426.18,249.33l.41-1.51.66-.2c7.71.01,16.53-3.18,23.99-3.43.89-.03,1.72-.22,2.33.64l-1.51,1.05-25.87,3.45Z"/>
  <path d="M449.73,272.88c-5.93.73-12.5,2.46-18.41,2.81-2.21.13-2.5-.94-.21-1.52,3.79-.97,12.42-2.37,16.29-2.57,1.08-.06,2.42-.17,2.34,1.29Z"/>
</svg>