<?xml version="1.0" encoding="UTF-8"?>
<svg id="Layer_1" data-name="Layer 1" xmlns="http://www.w3.org/2000/svg" viewBox="0 0 600 400">
  <path d="M469.71,271.75c.48.09,2.32,1.29,2.42,1.86l-.55,93.05,3.85,1.59-1.11,1.79c-.95-.48-1.96-.69-3.03-.7-34.29-.59-68.85.15-102.98.01-11.9-.05-28.49,1.42-39.71.05-3.4-.42-5.66-2.95-8.54-3.66-6.01-1.49-12.18-.21-17.75,2.11,3.88-18.11-10.74-34.23-29.28-31.95-3.16.39-5.68,2.3-8.85,2.2.36-3.4,4.69-2.63,6.88-4.94,3.88-4.08,3.65-11.8,1.32-16.61-3.86-7.97-16.69-11.87-18.05-.25l-2.36.44,38.91-110.19-6.9-2.36c-3.73,10.66-8.21,19.2-16.84,26.68-1.73,1.5-15.34,11.33-16.3,11.14-1.71-.34-1.26-7.12-1.15-8.76.86-13.39,6.49-29.28,16.74-38.2l-6.35-5.61c-2.68.47-20.91,27.78-23.68,32.04-12.87,19.79-24.49,40.49-35.51,61.36l-2.29-.78,6.75-12.22c-3.7-4.34-11.28-.14-13.54,3.92-.9,1.62-.52,3.61-2,4.85-11.38-13.97-35.14-3.99-33.81,13.62,5.99,2.24,12.52,7.3,13.61,13.85l10.91-7.77c7.42-3.56,16.4-2.53,22.64,2.8,1.6,1.37,2.35,3.02,3.8,4.19l24.84-53.34,2.62-1.57-27.84,58.71c-6.64-12.65-20.89-13.83-31.29-4.58-1.13,1.01-5.52,7.11-6.46,6.11-.92-12.41-14.6-19.66-26.12-18.1-7.69,1.04-11.43,5.12-15.7,10.99-.69.94-.79,2.12-2.42,1.77.87-7.94,10.58-14.28,18-15.16,3.94-.47,7.26.52,11.03.36,1.63-17.88,21.5-26.65,35.79-15.7,1.71-7.31,11.06-10.67,17.54-6.87,12.17-23.33,26.1-45.91,41.34-67.36,1.62-2.28,10.07-12.14,10.4-13.27.63-2.13-.56-3.59-.48-5.18.29-5.75,1.91-11.4,2.13-17.16l-42.71,16.01,22.99-38.4,38.41-21.08c20.6-38.78,47.64-78.3,91.9-91.53,13.13,45.12-8.35,90.08-31.13,127.91-.1,12.18,4.07,32.66.45,43.91-1.22,3.8-19.65,35.53-21.6,36.37-.34.15-1.88.32-1.88-.35l-5.34-40.04c-1.65-1.65-15.55,9.67-18.68,9.92l-35.46,98.79c-.16,1.86.06.81.75.77,14.4-1,22.03,13,16.02,25.52,7.31-.76,13.38,1.72,19.83,4.58v-49.58h25.55l1.14,1.14v39.28h16.02v-60.64c1.24-1.73,3.49-1.09,5.34-1.14v-8.39s11.44,0,11.44,0v-32.8h2.29v32.8h9.15v13.73h29.75v-40.42h8.39v-12.2h6.1v-11.06l1.24-1.09,5.62.71v-27.84l2.29-1.14v28.98h9.92v11.44h6.1v12.2h12.2v40.42c6.78.93,16.93-1.25,23.26,0ZM371.64,78.09c-10-5.96-19.49-12.75-30.17-17.51-3.71-1.65-10.23-5.57-13.61-3.16-5.59,3.99-12.69,12.48-17.15,17.95-21.72,26.62-34.69,58.06-49.27,88.83-1.47,4.57,3.53,6.64,6.6,8.71,6.38,4.31,14.42,8.67,21.28,12.28,2.9,1.53,21.42,11.18,22.79,10.21,6.85-11.58,15.62-21.93,22.84-33.26,16.34-25.6,30.25-54.23,36.69-84.06ZM297.72,202.35c-6.06,1.75-36.58-20.53-38.14-19.06.71,1.63,1.25,3.42,2.4,4.84,3.94,4.88,23.89,16.06,30.04,16.53,1.64.12,6.24.25,5.71-2.31ZM251.96,238.95c14.03-7.84,25.5-18.81,29.64-34.85.22-.7-.2-.97-.65-1.37-.51-.46-11.3-6.31-11.98-6.37-13.2,8.82-17.19,27.49-17.01,42.59ZM410.6,243.52h-7.64v7.64h7.64v-7.64ZM422.8,243.52h-6.11c.29,1.9-.75,6.99.75,8.06l5.36-.43v-7.63ZM410.6,256.49h-7.64v9.16h7.64v-9.16ZM422.8,256.49c-1.54.14-4.88-.56-5.77.72l-.34,8.44h6.11s0-9.16,0-9.16ZM459.41,273.27h-97.63v71.7c.56.2.91-.76,1.14-.76h96.48v-70.93ZM350.34,276.32h-4.58v5.35h4.58v-5.35ZM350.34,291.58h-4.58c.14,1.53-.56,4.9.72,5.77l3.86.34v-6.11ZM305.34,298.44h-5.34v12.2h5.34v-12.2ZM314.49,298.44h-3.81v12.2h3.81v-12.2ZM351.11,307.59h-5.35s0,5.35,0,5.35l5.34.76v-6.11ZM305.34,320.56h-5.34v12.2h5.34v-12.2ZM314.49,320.56h-3.81v12.2h3.81v-12.2ZM335.85,341.92h-14.49v3.82c4.87.4,9.59-1.27,14.5-.77v-3.05ZM373.98,346.5v20.59h6.86v-19.45c0-.16,1.14-.86.76-1.14h-7.63ZM410.6,353.36h-7.64v7.64h7.64v-7.64ZM431.96,353.36h-7.64v7.64h7.64v-7.64Z"/>
  <path d="M155.66,181.95c8.47-1.23,31.46-1.08,40.21-.19,4.47.45,8.99,2.33,9.56,7.22.76,6.5.87,26.48.02,32.85-1.15,8.71-14.79,4.54-20.64,6.05l-7.24,14.1-8-14.1c-6.83-1.78-20.95,3.29-22.15-6.84-.72-6.07-.86-26.98.06-32.77.64-4.03,4.49-5.79,8.16-6.33ZM177.95,238.19l5.34-11.83c4.91-1.47,17.49,1.88,20.04-3.6,1.02-2.2.97-27.5.6-31.51-.37-4.03-2.29-6.73-6.5-7.23-9.13-1.08-31.93-.92-41.24-.02-3.92.38-6.72,1.49-7.22,5.75-.8,6.79-.6,22.03-.02,29.03.97,11.57,14.18,5.5,22.16,7.59l6.85,11.83Z"/>
  <path d="M229.84,332.77c10.77-6.05,24.87.19,30.28,10.52,4.13,7.88,2.7,14.96.2,23.04l-2.28-.39c7.95-16.81-3.98-36.05-23.07-32.98-1.16.19-8.11,3.63-8.2,2.48l32.41-78.93-29.35,76.26Z"/>
  <path d="M193.98,346.5c7.68-1.66,15.08-.91,20.99,4.55.85.79,7.69,9.54,3.79,9.16-.55-.05-2.98-5.22-4.16-6.5-5.78-6.27-15.96-7.5-22.91-2.64,4.42-24.64-34.8-35.29-41.21-10.68h-2.27c5.18-25.78,45.08-18.55,45.76,6.11Z"/>
  <path d="M219.91,79.53l-10.54,3.19-2.8,10.55-2.85-10.51-9.72-3.6,9.51-3.44,3.06-12.21,3.05,12.21c1.55,1.83,8.88,1.03,10.3,3.8Z"/>
  <path d="M430.62,71.72c1.47,1.38,5.74.89,6.68,3.24-5.74-.01-8.9,2.55-9.16,8.39-2.08-1.31-1.06-4.65-3.06-6.46-1.45-1.31-4.88-1.9-6.84-1.93,1.08-2.38,5.2-1.82,6.86-3.43,1.24-1.21,1.65-4.75,2.3-6.47l3.23,6.67Z"/>
  <path d="M171.09,115.39c-.22,2.75,1.63,3.6,4.09,3.81l.49,1.52c-.83.14-1.91.35-2.56.85-1.79,1.38-1.59,3.27-3.53,2.97.7-3.95-4.11-2.54-3.82-5.33,2.26.08,3.72-.95,3.82-3.29l1.51-.53Z"/>
  <path d="M205.42,150.47c-2.96.13-3.18,1.48-4.19,3.82-1.43-.62-.79-3.08-1.28-3.67-.54-.64-3.65-.06-3.67-1.66,3.04-.25,3.88-2.1,4.95-4.58l4.2,6.09Z"/>
  <path d="M393.8,137.51c.23,2.31.94,3.51,3.36,3.75l.46,1.58c-3.3-.22-3.09,3.35-5.32,3.06.65-2.82-5.21-2.82-3.83-4.56.29-.37,4.19-.3,3.75-3.36l1.58-.47Z"/>
  <path d="M264.9,52.09c.5.4,1.01,3.48,3.06,3.42-1.96,1.24-2.86,1.84-3.43,4.19l-4.18-4.19c1.74-.52,3.36-4.37,4.55-3.43Z"/>
  <path d="M447.47,147.92c.46.44,2.42,1.24,2.02,1.78l-3.43,3.05c-.54-1.78-4.34-3.31-3.42-4.54.15-.2,2.59-.39,2.29-2.3,1.75-.42,1.73,1.23,2.54,2.01Z"/>
  <path d="M303.81,154.29l-12.92-8.06c-3.04-1.28,0-6.94,2.44-6.32l20.37,14.05c.18.75-2.53,4.44-3.56,4.76-4.03,1.24-12.93-.6-17.78.91l12.92,7.69-2.67,6.07-21.37-13.01,1.96-6.1h20.59Z"/>
  <path d="M309.72,117.1c13.77-2.32,23.16,14.82,12.44,24.64-4.96,4.54-14.78,3.37-19.52-1.15-7.74-7.37-3.24-21.75,7.08-23.49ZM309.69,123.18c-10.62,2.44-4.45,18.98,6.36,15.52,9.81-3.14,4.53-18.02-6.36-15.52Z"/>
  <path d="M356.44,82.6l-2.4,5.97-7.11.1c-.65,2.31-3.8,5.33-4.1,7.47-.36,2.63,5.08,5.74-1.25,10.09l-16.97-21.72,3.29-5.75,28.55,3.84ZM341.95,87.17l-8.39-1.52,5.72,7.62,2.67-6.09Z"/>
  <polygon points="336.55 117.65 309.15 112.34 311.47 106.24 328.98 110.81 318.62 95.61 322.5 90.22 337.83 112.33 336.55 117.65"/>
  <path d="M454.07,278.61v60.26l-86.95.77-.8-58.39,1.18-2.63h86.57ZM451.78,280.9h-83.14v53.77c0,.25,1.01,1.16.76,1.91h82.37v-55.68Z"/>
  <path d="M163.25,197.15c3.89-1.17,5.42,1.8,6.7,1.88,2.1.14,3.84-4.03,8.73-.85,5.47,3.56,1.11,10.25-2.23,13.71-.65.67-5.53,4.76-5.9,4.85-1.92.51-10.18-8.35-10.72-10.4-.83-3.18-.18-8.12,3.41-9.2ZM168.93,201.43c-3.92-6.68-10.85.5-6.22,5.86l7.23,7.29c1.05,0,6.86-5.8,7.6-6.94,4.39-6.73-1.46-11.49-6.96-6.18l-1.65-.03Z"/>
  <path d="M191.69,216.07l-2.33-.34c-1.31-.96-1.02-12.68.04-14.91-1.77-.46-2.41,1.84-3.44,2.27-1.88.8-1.21-1.79,0-3.06.74-.77,5.73-4.21,5.73-1.89v17.92Z"/>
  <path d="M385.22,296.33c5.24-1.07,8.49,3,9.63,2.8,1.85-.33,2.4-4.02,8.32-2.8,7.11,1.46,7.96,9.09,5.27,14.84-1.01,2.15-12.06,14.24-13.64,14.66-1.06.28-1.4-.12-2.17-.64-3.16-2.12-12.59-12.54-13.55-16.2-1.39-5.29.17-11.43,6.14-12.66Z"/>
  <polygon points="437.29 322.09 434.24 322.09 434.24 300.73 429.28 304.53 428.14 302.65 435.47 296.22 437.29 297.3 437.29 322.09"/>
  <path d="M415.94,316.75c.24-2.53-.36-5.58,0-8.02.15-1.06-.43-1.3,1.15-1.14l4.89,4.86-6.04,4.3Z"/>
</svg>