<?xml version="1.0" encoding="UTF-8"?>
<svg id="Layer_1" data-name="Layer 1" xmlns="http://www.w3.org/2000/svg" viewBox="0 0 600 400">
  <path d="M251.9,274.42c-2.16,4.28-5.81,8.59-8.48,12.62l-.03.78,22.88,32.7c1.22,1.32-2.2,5.4-1.98,5.89,4.19,3.96,7.84,8.49,10.9,13.36l4.5-1.94.94.99-4.11,2.53c.86,3.24-1.35,6.51-2.87,9.34-5.66,10.52-19.94,29.31-33.34,28.08-5.11-.47-8.25-5.09-8.1-10.04.27-8.97,8.45-19.14,9.87-28.15-.13-.13-.91.34-1.32.28-1.76-.28-6.45-5.41-7.93-6.97-7.41-7.76-15.61-17.5-21.78-26.27-10.51-14.93-13.77-23.55-5-40.69,6.68-13.06,15.48-25.09,22.99-37.67-.93-1.5-2.1-2.65-2.17-4.58l6.16-39.26c-3.81,2-8.64,6.87-13.19,6.73-1.54-.05-2.92-1.35-3.84-1.15-1.2.26-5.21,2.99-7,3.67-13.44,5.1-21.1-2.99-23.44-15.53-1.92-10.34-1.03-21.92.21-32.3-3.09-.08-5.53-2.44-6.21-5.41-.21-.93.03-1.92-.27-2.88-.38-1.22-2.48-2.63-2.89-4.59-.68-3.29.71-4.24,1.07-6.63.22-1.48-.2-2.95.21-4.52.36-1.38,1.85-2.23,2.09-3.02.23-.72.03-1.67.26-2.5.67-2.43,1.68-4.91,4.56-5.1-2.02-7.93,4.69-8.32,10.23-5.51l.39-2.36-52.14-.82c-5.08-.69-7.68-6.66-8.1-11.19-1.48-16.11,8.49-39.58,20.86-50.01,5.21-4.39,10.66-5.98,16.51-1.54l36.83,37.59c4.7,1.76,17.51,5.33,19.41,10.12.43,1.08.36,2.69.69,3.25.21.36,1.58.84,2.18,1.36,5.51,4.79.26,15.65-6.57,15.83-.9.02-2.03-.69-2.65-.57-.44.09-1.23,1.19-1.93,1.57-2.9,1.55-5.29,1.27-8.37.47l-2.78,2.97c2.17,2.6,3.86,4.46,4.19,8.08.69,7.42-2.22,13.01-6.27,18.89l3.11,17.15c11.86-9.23,22.98-20.84,38.03-24.78,7.85-2.06,15.78-1.97,23.76-.84l1.21-4.7c-9.64-.71-19.92-7.63-20.86-17.93-.69-7.48.9-15.36,3.13-22.46-3.6-4.06-3.99-10.39-1.17-14.95-.04-.36-1.98-.3-.96-2.55,1.11-2.47,5.14-1.54,7.27-1.19l1-6.3c-4.67-2.66-9.49-8.43-6.59-14.06s10.08-.53,13.86,1.06c-1.66-3.64-1.86-8.16,1.57-10.84,5.55-4.33,9.31,2.41,13.7,4.04,4.14,1.53,9.79.72,14.35,1.4,10.17,1.51,16.89,7.05,18.03,17.61l3.15-5.3c1.16-.93,2.57-.72,3.54.37,2.6,2.93-1.56,8.94-1.19,9.26,3.9-.26,9.53,3.08,8.49,7.51-.6,2.54-3.44,3.09-5.34,1.55,2.1,5.37,2.22,10.27-.45,15.5-.73,1.44-3.61,4.6-3.8,5.26-.43,1.43.08,4.07-.12,5.78-1.04,8.69-9.05,11.98-16.89,10.08l-3.15,17.72c8.03.05,16.25.41,24.02,2.56,6.86,1.9,12.54,5.26,18.4,9.17,7.56,5.04,16.12,13.18,23.6,17.36.47.26.91.51,1.47.48,3.12-3.83,6.58-7.42,9.69-11.27,1.21-1.5,9.28-11.88,9.4-12.66.07-.5-.72-1.16-.86-1.77-.92-4.1,1.02-9,.53-13.52-.34-3.14-3.22-7.14.01-9.82,5.19-4.3,9.77,4.5,10.81,8.45,5.09-4.3,9.39-10.95,14.58-14.95,1.86-1.44,5.78-3.37,7.45-.77,2.72,4.22-5.65,11.55-7.26,15.34,3.79-1.74,12.69-7.8,16.64-7,1.5.31,3.27,1.97,3.65,3.45,1.33,5.11-8.06,8.71-11.24,11.23,3.96-.2,11.73-3.71,13.88,1.48,2.09,5.07-7.69,7.83-11.12,8.96l4.22,1.09c5.03,2.61,2.64,6.16-1.84,7.39-2.96.81-7.23.04-9.56,1.07-1.11.49-2.95,2.4-4.27,3.21-3.16,1.94-6.48,3.25-10.21,3.57-4.13,8.46-8.2,17-13.22,24.97-6.88,10.93-14.23,21.28-28.72,16.19-1.4-.49-6.69-3.44-7.08-3.41-.41.03-1.77,1.34-2.56,1.64-3.31,1.24-5.27.34-8.01-1.45-5.13-3.34-9.96-8.08-15.41-10.96l-.52.68-5.6,31.02c.04.91,4.34-1.79,4.34.39-.52,1.41-3.97.96-4.35,1.65l-1.66,17.16-3.04,4.05c.55,6,.79,12.15,1.57,18.11.07.54-.22.69.58.58,13.67-6.75,27.15-13.84,39.71-22.51,5.14-3.55,9.93-7.73,15.23-10.96l-.24-.81c-1.14-.83-4.1-1.95-4.89-2.91-.4-.49-.67-.78.01-1.2,1.57-.98,6.08,3.69,7.08,3.18,18.3-15.57,35.06-32.97,49.22-52.41l1,.2c.28.28.23.62.2.97-.09.88-5.33,7.42-6.31,8.68-4.5,5.73-9.42,11.39-14.36,16.75-24.3,26.39-53.89,48.11-86.77,62.67l.72,16.87c.27.29,3.84-1.35,4.47-1.63,38.62-17.37,75.77-45.03,103.02-77.33.98-1.16,5.46-7.42,6.18-7.61.53-.14,1.23.1,1.31.54.44,2.21-23.92,27.68-27.36,30.91-6,5.63-14.89,13.73-21.72,18.05-.71.45-1.64.32-2.33.82-.21.15-1.88,2.47-1.97,2.75-.58,1.88.29,6.44-2.53,6.32-.07-1.58.45-3.08.72-4.6.09-.51-.01-.75-.52-.52-12.49,9.32-25.79,17.72-39.57,25.01-6.21,3.29-12.81,6.09-18.87,9.5,1.81,6.17,3.57,12.45,5.86,18.45,1,2.63,2.63,7.09,4,9.39.23.38.61,1.05,1.15.89,1.77-.83,3.02-3.21,5.1-3,1.28,1.23-5.21,4.01-4.67,5.61l10.1,21.46c.71,3.58-3.47,5.38-3.37,6.61,3.22,3.94,7.16,8.57,7.73,13.83.87,8-.35,21.83-4.6,28.77-4.39,7.17-15.42,12.35-22.49,5.8-9.85-9.13-1.82-26.08-3.18-37.58-2.33.6-4.31.67-6.12-1.16l-9.23-14.82c-.93-.51-4.71,3.46-5.51,2.59-1.57-1.69,4.93-3.41,4.57-4.74-10.28-17.48-22.1-34.83-26.03-55.11-.75-1.06-2.91.79-4.14.4-.75-2,3.5-2.41,3.56-2.98l-3.93-18.5c-.9-1.55-6.24-3.46-8.08-4.12-1.33-.48-6.59-2.31-7.58-2.29-.9.02-1.29,1.14-.64,1.51,2.62.7,5.28,1.4,7.82,2.35,1.79.67,7.8,2.78,7.68,4.9-.15,2.59-13.11,17.43-14.97,20.91,3.66.41,7.85-1.81,11.29-2.04.41-.03,1.6.13,1.31.85-.8,1.97-11.82,2.96-14.17,3.35.24-.47.4-.99.79-1.38.09-.28-.3-.23-.58-.19-1.75.25-5.74,1.13-7.38,1.68-.58.19-1.1.35-1.48.88.5.73.95.61,1.71.56,2.13-.15,4.78-1.19,6.94-1.54ZM142.03,101.15c3.37.8,6.98.27,10.45.38,9.32.31,18.6.3,27.96.39,6.52.06,17.01,2.29,22.24-2.15,2.57-2.18,4.41-6.04,5.31-9.26s1.96-8.41.01-11.03l-37.95-38.05-1.64-.53c4.94,6.3,3.4,17.32,1.7,24.73-2.95,12.87-11.75,29.17-24.04,35.03l-4.04.48ZM151.09,74.97c.22,1.67,0,4.12,0,5.91,0,.39-1.02.83.39.59,1.15-5.52,5.01-10.62,11.04-10.83-5.01-2.33-7.03-8.18-5.52-13.4l-.78-.19c-1.01,4.68-5.97,10-11.03,9.85-.22,1.03.21.61.57.82,2.84,1.68,4.87,3.74,5.34,7.25ZM265.28,69.65c.83.4,3.78,2.56,4.33,3.35.71,1.01,1.11,2.11,1.18,3.35,1.66-2.47,5.12.51,6.04.33.67-.13,2.19-2.55,3.97-3.11,3.93-1.24,14.56,1.23,17.38,4.34,1.72,1.9,1.4,1.33,3.45,2.84,1.1.82,1.87,1.95,3.02,2.69.15-2.3.47-4.85.97-7.1.38-1.71,2.54-7.18,2.55-8.06,0-1.63-5.15-5.89-6.66-6.7-13.25-7.08-24.63,6.77-37.81.99l-1.58,6.29c.11.12,2.75.6,3.15.8-1.74-.68,2.17-3.33,3.37-3.52,1.62-.25,5.08.15,5.3,2.16.32,2.93-1.98.17-2.38,0-2.95-1.34-4.71,1.99-6.29,1.37ZM261.74,73.6c-1.54-1.53-5.07,1.69-4.72,2.94.6,2.17,5.22-2.25,4.72-2.94ZM306.67,94.43c-.22-4.97-4.12-7.68-7.32-10.98-1.52,3.12-3.12,6.08-5.92,8.25-6.53,5.08-16.81,3.46-17.87-5.74-.46-3.98,1.63-8.09-4.37-8.03.01,1.77-.32,3.63-1.53,4.97l-.04.54c.95.09,2.03.99,1.4,1.99-1.01,1.6-4.74-1.06-6.92,1.76-3.77,4.86,4,5.24,6.31,7.49.53,2.2-5.64-.56-6.44-1.05-2.17-1.32-2.51-2.97-2.99-5.28l-3.95-.97c-3.35,12.64-7.16,27.66,6.82,35.11,7.63,4.07,17.83,4.6,25.04-.69,1.65-1.21,2.83-3.48,4.76-3.31.9.9-2.59,4.1-3.34,4.73-4.25,3.59-10.28,6.25-15.92,5.94-.77.66.07,9.63-2.65,4.26-2.21-.32-2.39.29-2.81,2.29-.92,4.4.94,7.29,5.39,8.19,8.23,1.67,19.42-2.19,24.6-8.92,3.84-4.98.31-3.04-.16-3.51l3.74-22.84c.62-.97,1.95.66,3.14.81,4.03.51,9.19-.14,11.45-3.94,2.96-4.98,3.36-14.16-4.64-12.91-1.31.2-5.03,2.33-5.77,1.84ZM285.63,78.77c-.34.09-4.18,2.9-2.64,3.7,2.32,1.62,5.79-4.56,2.64-3.7ZM426.15,137.78c-2.79-.39-6.37.29-9.25,0-.12-.89-.01-1.02.64-1.52,1.59-1.22,7.52-2.84,9.86-3.92,1.26-.58,5.17-2.34,5.87-3.19,1.25-1.54.18-3.28-1.63-3.55-1.53-.23-15.03,2.47-15.53,3.13,1.09,1.87-.22,3.19-1.51,1.31-1.9-2.77-2.01-4.69-4.99-7.22-.88-.75-2.74-.84-1.97-2.34,1.87-3.41,10.58-12.72,10.81-16,.04-.57-.19-1.17-.43-1.68-2.85-.65-4.55,1.95-6.65,3.27l-13.18,14.01c-.71,1.53,1.79,4.13,2.51,5.76,1.23,2.78,1.55,5.05,1.14,8.11-.23,1.66-.89,4.83-3.05,4.23.96-4.17,1.95-6.92.34-11.17-.66-1.75-2.5-3.78-2.91-5.35-.26-1.01-.04-2.03-.28-2.87-.78-2.74-2.74-8.92-6.37-8.56-4.19.42-.81,6.94-.61,9.63.36,4.95-2.13,9.8.32,14.29l-.13.86c-2.87,4.07-5.78,8.12-8.88,12.03-5.78,7.28-13.59,13.73-16.12,22.86l-.8-.02c-1.34-1.93,1.77-7.93,3.52-9.44-1.33-2.26-3.04-.82-4.67.43-6.63,5.07-11.79,14.73-14.16,22.55,6.69,4.36,13.45,10.2,22.1,9.02,7.18-.99,13.17-9.4,16.85-15.05,5.55-8.52,9.96-18.07,14.27-27.27,5.19-.54,8.98-2.07,13.09-5.23.66-.51.85-1.43,1.47-1.7,3.93-1.73,11.01,1,13.66-3.56-.13-.75-2.62-1.72-3.32-1.82ZM185.74,111.79c3.41-.08,6.1,2.36,8.93,3.86l3.64-2.13c-1.62-4.8-13.22-10.89-12.58-1.74ZM410.59,120.46c-.42.58,2.26,2.76,2.76,3.34.59.68,1.07,2.61,2.1,2.51.51-.05,7.81-4.59,8.89-5.3,2.13-1.4,8.69-4.83,5.95-7.85-1.97-2.17-6.59.42-8.81,1.44-3.68,1.7-7.1,4.35-10.88,5.86ZM181.8,118.88c3.31-.35,6.26,1.19,9.23,2.35l2.21-3.73c0-1.07-5.08-3.46-6.22-3.64-3.54-.58-5.1,1.77-5.22,5.03ZM210.55,159.44c-.43.4,2.02,9.84,2,11.62-.03,1.94-.92,2.48-1.92.7l-5.58-31.79c3.75-5.65,8.11-12.43,6.24-19.67-2.77-10.74-18.23-4.58-18.45,2.36-.21,6.48,10.74,1.14,12.83-1.38l.94.56c.48,1.86-5.09,4.53-6.69,4.93.64,1.3.53,2.81.02,4.14-2.6,3.79-3.97,11.25-6.71,14.55-1.59,1.92-3.52,1.08-5.54,2.03-2.95,17.91-4.5,59.4,25.49,43.12,3.56-1.93,6.64-4.67,10.3-6.43-.1-5.9-1.53-12.5-4.46-17.66-1.75-3.1-4.65-6.9-8.47-7.08ZM195.19,127.55c-2.98.27-3.2-3.16-4.58-4.28-.88-.72-4.75-2.14-5.96-2.31-3.8-.55-5.6,1.26-5.61,5.01,5.35-.94,11.8,6.28,16.15,1.58ZM190.77,135.32c3.38-3.94-7.85-7.47-9.97-7.41-3.33.1-3.63,6.9-.71,8.26,3.19-2.94,7.2.79,10.68-.86ZM345.22,188.58c.22-6.1,3.28-12.62,6.38-17.84,3.08-5.19,6.82-9.57,11.73-13.07-12.95-9.08-25.47-21.57-41.34-25.21-6.09-1.4-12.41-1.81-18.67-1.79-3.28,11.13-21.06,18.45-31.34,14.39-5.89-2.32-5.73-6.54-4.34-12-6.04-.03-11.73-.31-17.65,1.05-14.68,3.38-26.24,14.67-37.48,23.95,3.72.96,6.19,4.12,8.04,7.31,3.87,6.7,5.27,15.59,4.36,23.2l8.6-6c1.69-8.7,2.85-17.84,5.58-26.29.34-1.05,1.37-4.91,2.37-5.12l.98.61c-7.05,22.92-9.6,47.02-13.38,70.67,4.52-1.03,9.02-2.1,13.64-2.7,17.71-2.3,54.26-2.68,70.38,4.73,1.83.84,4.96,1.89,4.58,4.27l-1.57-.39.59,3.15c2.88-4.47,2-11.1,2.56-16.34,1.36-12.61,3.25-25.23,6.67-37.43-.08-1.52-5.98-3.27-2.23-4.05l21.54,14.9ZM232.21,223.63l-3.54.79c-.33.47,1.02,3.13,1.37,3.13l2.17-3.93ZM318.44,252.77l-18.5,7.28c.47.68.92.65,1.67.53,2.42-.41,9.19-3.26,11.82-4.35.74-.3,6.21-2.22,5.01-3.45ZM293.63,261.82l-19.85,5.87-.23,1.21c.37.38,9.03-2.2,10.24-2.56,1.42-.43,8.83-2.66,9.44-3.16.54-.45.44-.73.4-1.36ZM320.02,272.45c.06-1.69-1.59-.83-2.63-.46-3.85,1.36-7.73,3.6-11.69,4.84l-.63,1.53,14.96-5.91ZM236.93,275.61c-2.56.35-5.57.35-8.06.79-.53.09-1.12.36-.99.97.4.55.67.61,1.32.58,2.24-.11,4.77-.91,7.09-.83l.65-1.51ZM219.01,277.18c-3,.15-6.05-.11-9.06,0-1.14.95-.51,1.44.77,1.59,3.09.36,6.59-.9,9.8-.39,1.51-2.38-.6-1.25-1.51-1.2ZM325.38,307.14c-.45.06-7.03,5.23-6.93,5.67s.78.68,1.31.53c.5-.14,6.47-4.84,6.57-5.26.05-.53-.41-1.02-.94-.94ZM306.68,320.93c-.22.89.08,1.68,1.16,1.37.37-.11,4.78-3.32,5.27-3.79,1.07-1.03,1.38-2.36-.32-1.9-1.07.29-4.34,4.1-6.12,4.32ZM251.88,353.96c-2.62-.69-10.81-1.84-12.78.01-.71.67-3.03,6.65-3.46,7.96-.77,2.41-3.21,8.88.39,9.67,13.37,2.95,25.6-14.71,31.03-24.72,1.35-2.49,4.6-7.96,3.52-10.63-.31-.76-6.59-8.16-7.12-8.26-5.87,4.64-11.69,10.65-19.41,11.81l-1.21,5.88c3.38-1.04,7.2-1.74,10.64-.6l.39,1.78c-4.04-.72-7.78-.4-11.72.66l-2.06,4.07c2.11-.54,11.11-.87,12.03,1.17l-.23,1.18ZM318.05,342.94v7.48c1.88-1.44,10.82-3.12,12.02-1.19l-.41,1.19h-6.3c-.49,0-5.04,1.73-5.35,2.13-.36.46-.97,3.93-.75,4.17,2.7-1.06,5.49-2.2,8.45-2.37,1.76-.1,4.71-.38,3.76,1.98h-5.71c-1.16,0-6.23,2.28-6.79,3.45-.77,1.61-1.05,7.83-.9,9.76.79,10.49,10.65,10.31,17.15,4.52,5.75-5.11,7.63-14.87,8.06-22.26.15-2.57.44-10.83-.09-12.9-.11-.43-3.7-5.41-4.04-5.41-5.26,4.63-12.03,8.64-19.1,9.44ZM234.96,373.27c1.29,2.72,4,3.7,6.89,3.71,8.83.01,18.22-9.78,23.2-16.35,2.24-2.96,9.62-13.93,9.7-17.11.03-1.09-1.72-5.2-2.38-3.91-2.02,5.82-5.57,11.79-9.13,16.85-6.28,8.91-16.16,19.51-28.28,16.81ZM320.41,379.17c5.27,6.53,15.92,1.15,19.62-4.6,2.65-4.11,4.08-10.83,4.39-15.69.35-5.39.16-11.46-.79-16.73-.69-.09-.37.89-.39,1.37-.33,8.15-.1,15.46-3.14,23.25-3.16,8.09-10.46,14.73-19.7,12.4Z"/>
  <path d="M498.4,127.15c-2.49.95-4.04,4.58-7.2,3.86-.89-.2-1.31-1.13-2.24-1.1-1.21,1.9-3.59,5.92-6.22,5.26-5.46-3.65-11.17-7.22-16.36-11.24-.75-.58-2.92-2-3.21-2.69-1.11-2.61,1.33-4.93,2.56-6.88,0-.97-2.21-1.9-2.37-3.58-.15-1.52,1.04-3.01,1.18-4.49-3.31-.16-6.62.25-9.85.98-3.38.77-9.17,3.6-12.06,3.73-1.61.07-1.49-1.09-1.14-2.36.56-2.06,4.23-7.67,5.56-9.8,2.62-4.21,6.8-10.78,10.61-13.81,5.03-3.99,12.57-5.36,18.69-6.91,13.5-22.83,34.43-44.65,59.76-54.04,1.61-.6,7.55-2.89,8.76-2.27.85.43.95,2.28,1.12,3.22,4.9,26.22-11.4,58.72-26.66,79.19.33,5.46,1.61,11.39,1.14,16.86-.54,6.18-6.72,15.28-10.33,20.39-1.39,1.98-4.32,6.47-5.83,7.95-.75.74-1.99,1.57-2.72.36l-3.18-22.61ZM542.04,53.59l-26.43-15.93c-.48-.32-.76-.08-1.18.15-2.67,1.45-7.69,6.18-10.12,8.42-18.89,17.38-31.93,38.3-38.9,63.11l.29,1.9,25,17.52c.94.59,1.87.54,2.81,0,1.55-.91,5.88-5.19,7.47-6.7,14.4-13.74,26.99-31.04,34.91-49.36,1.13-2.61,7.12-17.45,6.15-19.09Z"/>
  <path d="M433.04,348.45l24.4,5.5c.13-1.14.45-2.25.79-3.34,1.93-6.08,4.36-14.64,6.9-20.27.64-1.42,1.21-2.89,3.03-2.69,1.45.16,9.67,2.21,10.54,2.89.31.24.63.46.74.86l-7.82,26.5,9.23,1.93,11.75-37.86.97-1.03,12.94,3.07.18.6-11.36,38.22,12.52,3.33,18.54-60.41c.13-.27.33-.47.62-.57.62-.2,12.32,2.2,12.7,2.73l-18.03,60.89c-.13.49.22.66.61.82,1.77.71,5.7.77,7.33,1.73.76.45.75.64.66,1.5l-103.69-24.09-.67-.91.66-.95,4.83.72,21.3-72.43,1.19.18.31,1.08-21.19,71.97Z"/>
  <path d="M150.21,181.99c.92-.09,1.67-.19,2.62-.08,2.02.24,16.76,6.82,19.01,8.16,1.09.65,1.89,1.39.91,2.65l-67.64,17.81-2.74-.21c-2.41-1.89-22.55-10.12-22.92-11.35-.14-.45-.03-.87.36-1.15l1.09-.49,69.31-15.35Z"/>
  <path d="M102.18,246.58c25.94-1.74,31.05,36.72,5.3,41.92-29.11,5.88-35.06-39.92-5.3-41.92ZM99.92,277.94c.42.12.84.06,1.25-.06.86-.26,6.95-5.57,7.99-6.59,1.4-1.38,5.78-5.36,2.66-7.01l-14.07-5.22c-1.4.28-1.47,1.33-1.4,2.55.25,4.96,2.94,11.27,3.58,16.33Z"/>
  <path d="M381.94,319.22l3.96,1.22c1.29-1.04,2.88-2.99,4.78-2.71.32.05,5.17,3.46,5.36,3.73,1.62,2.22-2.11,4.1-1.43,6.53.08.3,1.35,2.59,1.49,2.67.97.57,3.8-.62,5.06.76.74.82,1.76,6.32,1.58,7.38-.29,1.72-5.08,1.6-5.83,2.66-.35.49-.62,3.27-.41,3.96.36,1.17,3.04,2.34,3.04,4.02,0,1.1-4.42,6.44-5.61,6.4-2.91-.09-5.09-4.39-8.73.1l-.68,5.03c-1.52.33-7.61,1.42-8.48.39-.53-.63-.6-3.46-.96-4.35-.33-.8-3.46-1.91-4.26-1.69-1.23.34-3.27,3.42-4.84,3.3-1.27-.1-5.89-4.35-5.72-5.53.2-1.41,2.46-3.36,2.14-4.63-.08-.31-1.89-3.46-2.07-3.57-1.35-.87-4.05.32-5.27-1.33-.56-.75-1.23-4.86-1.14-5.88.37-4.17,4.53-1.83,5.98-4.29,2.39-4.07-.87-3.62-2.09-6.36-.88-1.98.49-3.09,1.79-4.57,5.04-5.71,4.77-.42,7.88-.41.38,0,3.14-1.3,3.51-1.59,1.63-1.26-.8-5.8,2.78-6.28.85-.11,6.55-.07,6.93.19l1.25,4.85ZM376.62,328.07c-12.02,2.06-10.34,21.77,3.42,19.95,12.44-1.64,10.16-22.28-3.42-19.95Z"/>
  <path d="M67.21,197.64c.03.49.56.64.91.86,12.59,7.93,29.31,16.39,42.79,22.97,6.07,2.96,7.16,4.13,14.09,2.26,25.33-6.83,50.63-17.71,76-24.84l1.3.09c1.14,3.38-.28,6.73-3.86,7.62-23.68,6.82-47.1,17.07-70.68,23.82-8.47,2.43-9.37,2.42-17.24-1.47-12.89-6.38-27.18-14.17-39.64-21.4-3.38-1.96-7.04-3.07-7.57-7.4-.35-2.85-.41-5.13-.95-8.1-4.1-22.26-10.42-44.3-14.02-66.63.55-3.24,3.17-4.14,6.07-4.57l81.93-7.11c2.31.06,4.16,1.64,4.79,3.87l13.32,59.53.87.71c8.85,4.33,19.58,7.08,28.21,11.56,1.81.94,2.15,1.88-.25,1.84l-29.96-12.04c-6.39,2.48-13.96,3.36-20.81,4.75-21.79,4.41-43.52,9.18-65.29,13.67ZM132.1,115.84c-26.16,1.61-52.27,5.37-78.45,7-3.56.68-3.67,1.88-3.28,5.18l14.84,67.87,86.85-17.97.39-1.21-13.39-59.42c-.95-2.35-4.8-1.59-6.98-1.46ZM201.1,200.79l-78.59,25.56c-5.24.71-8.74-1.53-13.17-3.7-8.32-4.08-16.88-8.74-25.06-13.13-6.35-3.41-12.67-6.96-18.84-10.7-.51,1.22.2,3.45,1.23,4.28,14.74,7.66,29,16.46,43.85,23.88,7.28,3.64,8,4.13,16.06,1.87,23.91-6.71,47.7-17.13,71.68-24.01,2.23-.55,2.5-1.99,2.84-4.05Z"/>
  <path d="M380.01,303.43c-20.82-20.8,13.04-54.43,32.93-30.76,18.27,21.75-13.29,50.38-32.93,30.76ZM390.01,275.7c-1.68.27-3.62,1.49-4.56,2.92-4.63,7.09,4.21,14.38,7.23,20.22l.7.34c.84-.07,10.36-6.41,11.5-7.43,8.51-7.54,1.86-18.24-7.85-12.24-1.93-2.58-3.51-4.39-7.03-3.82Z"/>
  <path d="M434.2,77.9c-.55.18-.93-.12-1.39-.34-3.53-1.73-8.86-7.11-12.41-9.64-.39-.28-1.54-1.27-1.91-1.02-3.61,5.06-7.13,10.32-11.05,15.14-6.98,8.58-14.76,17.5-27.1,14.52-7.26-1.75-12-7.82-20.29-6.79-12.15,1.5-27.84,27.71-36.85,36.4-.87.84-2.94,2.65-3.95,1.17,8.64-8.23,15.18-18.41,23.22-27.18,2.71-2.96,7.15-7.59,10.52-9.57,14.88-8.76,20.87,6.21,34.54,4.61,11.89-1.39,22.38-21.11,29.76-29.32l-14.83-11.71c-.51-.68-.89-1.78.15-2.18l42.27-15.26.41,1.2-11.08,39.95Z"/>
  <path d="M536.13,200.9c4.11-.23,7.43-.67,10.25,2.9,3.01,3.8,1.98,8.38,1.64,12.93-.91,12.33-2.87,24.62-3.58,36.98-.49,3.56-2.79,6.13-6.45,6.54-7.1.8-15.58.42-22.86.77-28.15,1.37-56.47,2.96-84.66,3.94-5,.17-9.88,1.86-13.98-2.14-1.86-1.81-2.47-3.75-2.34-6.31.64-12.73,4.45-26.76,5.22-39.67,1.1-4.99,3.31-5.62,7.97-6.21,18.26-2.3,37.49-3.1,55.91-4.73,17.46-1.55,35.45-4.02,52.89-5ZM539.68,202.46l-113.15,10.14c-3.89.51-4.91,2.73-5.59,6.22-2.35,12.05-2.41,25.18-4.84,37.3-.51,7.37,6.58,5.06,11.2,4.9,34.07-1.18,69.23-2.36,103.2-4.69,1.71-.12,5.4-.27,6.77-.71,1.88-.61,2.93-2.4,3.22-4.26.54-13.96,3.58-28.6,3.99-42.48.1-3.57-.6-6.55-4.81-6.42Z"/>
  <path d="M145.47,280.03c.8-.12,1.46-.12,2.26-.1,10.25.35,21.72,3.14,32.11,3.73,6.4,2.44,7.25,7,6.1,13.2-3.76,20.25-10.97,41.03-15.05,61.34-1.62,5.35-5.67,6.76-10.89,6.34-9.36-.77-19.66-3.63-29.08-4.78-4.48-1.84-7.96-5.88-6.9-11.01,5.92-19.97,8.65-41.94,14.66-61.73,1.12-3.7,2.63-6.36,6.79-6.99ZM168.41,347.28l13.7-55.83c.03-3.31-1.49-5.77-4.88-6.35-9.67-1.67-19.81-1.45-29.5-3.18-3.24-.5-6.31,1.01-7.09,4.32l-12.8,55.13,40.56,5.91ZM140.42,344.95l-12.98-1.83c-.47.32-1.95,6.62-1.96,7.52-.11,6.44,7.78,5.58,12.21,6.47l2.74-12.16ZM153.45,346.49l-10.97-1.13-3.2,12.15,11.02,1.58,3.15-12.6ZM167.61,348.86l-12.54-1.55-2.8,12.17c5.24.23,11.1,3.62,13.8-2.94.4-.96,1.97-7.23,1.54-7.68Z"/>
  <path d="M543.6,150.87c1.61-.2,2.49-.22,2.97,1.55,1.25,7.46,3.41,14.8,4.48,22.3.35,2.45,1.68,5.08-1.19,6.05-3.97,1.34-11.53,2.26-15.94,2.96-1.81.29-6.55,1.41-7.95.72l-5.71-27.76c.48-.74,1.24-.89,2-1.16,4.28-1.54,16.67-4.08,21.35-4.65Z"/>
  <path d="M516.03,165.44c1.34,1.37,2.77,15.9,4.01,18.68.36,2.18-1.99,2.3-3.52,2.7-5.81,1.5-12.21,1.96-18.03,3.64l-1.57-.39-4.01-18.67c-.24-1.43.66-2,1.86-2.4,4.13-1.36,14.62-3.57,18.92-3.95.72-.06,1.81-.16,2.35.4Z"/>
  <path d="M497.36,312.88c3.9,3.52,10.16-2.2,13.26-4.78,7.69-6.39,14.61-14.56,21.64-21.66l-4.34-3.94c-.02-.35.19-.56.38-.81,1.58-2.1,12.57-6.31,15.38-8.05l-3.73,17.34-.46.35c-1.67.47-4.84-3.94-6.03-3.34-1.56.79-6.58,7.33-8.27,9.09-4.62,4.82-10,10.17-15.18,14.35-4.27,3.45-10.3,8.59-14.93,2.74-3.97-5.02-3.44-12.59-12.16-6.99-9.4,6.04-16.84,14.77-27.18,20.47-2.49,1.37-9.02,4.7-11.59,4.98-1.44.16-1.7-1.06-.71-1.92,9.79-3.7,17.91-9.28,26-15.74,3.5-2.8,13.24-12.28,16.73-13.19,7.11-1.85,7.43,7.71,11.17,11.1Z"/>
  <path d="M97.03,319.39c.78-.23,1.54-.13,2.11.49l11.34,13.49c.12.78-9.46,9.5-10.4,9.6-1.03.1-2.04-1.25-2.74-1.98-1.17-1.23-9.54-11.27-9.66-12.04-.1-.69.06-1.01.39-1.58.44-.75,8.33-7.79,8.97-7.98Z"/>
  <path d="M81.68,335.12c.56-.11,1.07-.13,1.51.31,1.19,2.22,9.77,10.4,9.93,12.1.17,1.82-8.55,7.71-9.94,9.61-1.81,1.27-3.22-.78-4.36-1.98-2.61-2.75-4.75-6.35-7.47-9.07-.88-1.76.97-3,2.16-4.13.97-.93,7.6-6.71,8.17-6.83Z"/>
  <path d="M462.18,122.43c-2.94,3.58-7.1,5.83-10.23,9.26-4.33,4.76-7.39,10.66-9.46,16.72.42.39,4.62-2.67,5.44-3.03.44-.19,1.52-.8,1.65.09.09.6-3.93,8.82-4.51,10.44-2.01,5.65-3.33,11.68-3.36,17.7,5.94-2.24,11.3-6.75,16.15-10.82,1.15-.97,5.14-5.16,5.91-5.52.32-.15.61-.27.97-.23l.96.67-1.14,5.66c8.14-6.92,14.91-16.96,15.36-27.96,2.69.67,1.38,5.07.9,7-1.96,7.86-9.07,17.85-15.5,22.69-.95.71-1.92,1.65-3.07.97-.43-1.76.43-3.2.84-4.79.13-.52.74-.75-.28-.68-3.56,3.66-7.49,7.06-11.73,9.93-1.5,1.01-9.19,5.9-10.52,5.25-1.18-.92-.85-2.95-.79-4.35.25-5.17,2.24-12.34,4.03-17.23.57-1.56,1.86-3.55,2.26-4.83.08-.26.08-.67-.19-.58-7.06,4.65-5.49-.27-3.54-5.12,2.98-7.42,8.76-14.81,15.43-19.23,1.3-.86,2.85-2.13,4.46-2.04Z"/>
  <path d="M138.8,240.67c1.2-.08,2.15-.46,2.73.97l3.08,14.67c-.28.48-.74.6-1.22.78-1.17.43-11.34,2.73-11.9,2.49-1.21-.54-1.84-4.31-2.2-5.7-.48-1.87-2.26-9.36-1.79-10.71.19-.54.53-.48.93-.64,1.23-.51,8.75-1.74,10.36-1.86Z"/>
  <path d="M484.93,180.42c1.36-.15,2.58-.59,3.33.78.69,1.26,2.36,9.34,1.52,10.37-.59.72-12.21,2.6-14.08,2.85-1.12.14-3.14.71-3.91.1s-2.17-7.44-2.28-8.77c-.12-1.45.38-1.71,1.62-2.19,2.52-.97,11.02-2.85,13.79-3.14Z"/>
  <path d="M154.54,237.91c1.31-.14,2.2-.54,2.94.78,1.56,2.8,1.43,10.07,2.6,13.41-.34.82-1.07,1.06-1.81,1.35-.99.38-9.56,2.53-10.06,2.41-.72-.18-1.12-1.17-1.35-1.82-1.37-3.88-1.6-9.2-2.77-13.24.12-.65,1-.96,1.56-1.15,1.9-.67,6.79-1.51,8.9-1.73Z"/>
  <path d="M457.45,151.56c7.11-2.13,12.24-8.26,14.97-14.96,1.27.44.56,1.88.28,2.84-2,6.75-9.81,13.59-16.84,14.32-.98-.72-.08-7.41.2-8.91.91-4.96,3.58-11.26,7.9-14.05l.97.88c-5.34,5.1-7.78,12.59-7.47,19.88Z"/>
  <path d="M132.58,207.87l.4-1.36,24.61-6.9c1.76-.96,10.79,3.96,10.82,4.92.01.43-.81.59-1.29.52-2.15-.32-6.46-3.97-9.11-3.84-3.08.49-24.49,7.59-25.43,6.67Z"/>
  <path d="M438.16,203.54l19.09-24.8.53,1.3c-4.34,5.97-8.56,12.17-13.16,17.96-.94,1.18-4.85,6.9-6.46,5.54Z"/>
  <path d="M111.96,51.97c.86-.23,15.6,4.11,17.17,4.8,1.74.77,1.23,2.14-.58,1.79l-16.55-4.74c-.99-.23-.89-1.62-.04-1.85Z"/>
  <path d="M354.28,116.12c.26.26-.12,1.36-.37,1.79-1.29,2.18-7.75,10.05-9.66,11.99-.5.51-1.11,1.4-1.97,1.18l-.41-1.18,10.83-13.59c.33-.2,1.45-.31,1.58-.19Z"/>
  <path d="M124.12,28.7c.43-.08,2.73,1.79,3.3,2.21,2.52,1.87,6.55,4.92,8.71,7.04.98.96,2.2,2.42-.03,2.4l-12.51-10.34c-.27-.45.19-1.24.54-1.31Z"/>
  <path d="M125.89,74.78l-.05,1.33-.61.57c-4.16.04-9.53,2.63-13.44,2.74-1.75.05-1.82-1.32,0-2.02,2.24-.86,9.11-2.2,11.65-2.52.82-.1,1.63-.17,2.45-.11Z"/>
  <path d="M144.99,16.1c.7-.15.94.74,1.17,1.18,1.04,2,3.97,9.71,4.37,11.79.33,1.7-.93,2.26-1.73.92-.97-3.46-2.55-6.74-3.63-10.16-.21-.67-1.48-3.47-.19-3.74Z"/>
  <path d="M164.06,31.05l-1.38-.37c-.36-.4-.12-.78,0-1.2.4-1.51,4.08-9.57,5-10.77s2.16-.58,1.85.65l-5.46,11.69Z"/>
  <path d="M180.54,265.85c.19.1,2.12,2.63,2.84,3.26.29.26,4.67,2.85,2.16,3.34-1.26.25-7.56-5.71-6.49-6.69.07-.07,1.21-.07,1.49.09Z"/>
  <path d="M56.18,272.06l-1.2-.17c-.94-.69-.12-7.82,1.01-8.09.89,0,.94.68,1.01,1.37.07.74-.53,6.71-.82,6.9Z"/>
  <path d="M178.26,252.76v8.66l-1.39-.39c-.1-1.19-.61-2.61-.62-3.75,0-1.28.26-5.21,2-4.53Z"/>
  <path d="M355.85,280.73c.17.8-.18,1.05-.57,1.59-.36.49-4.62,4.75-4.93,4.91-.69.36-.75.06-1.19-.41-.15-.68.24-.95.57-1.39.39-.52,3.94-4.1,4.33-4.33.63-.37,1.06-.48,1.79-.37Z"/>
  <path d="M364.52,212.99c-.39.38-8.63-1.59-8.65-2.16l.65-1.01c.76-.19,6.96,1.29,7.6,1.81.54.45.44.73.4,1.36Z"/>
  <path d="M372,259.46c.74.77-2.67,5.47-3.38,6.26-.62.7-.98,1.42-2.13,1.21-.14-.75.05-1.15.38-1.78.29-.56,3.21-4.8,3.55-5.12.54-.49.78-.72,1.58-.58Z"/>
  <path d="M363.21,270.55c.53-.14,1.28.15,1.3.53.02.49-4.87,6.51-5.7,6.49-.54-.01-.66-.93-.38-1.56.25-.56,4.37-5.35,4.79-5.46Z"/>
  <path d="M127.46,303.96c1.74,1.72-6.08,2.42-6.89,2.4-1.96-.06-2.67-.98-.42-1.64.86-.25,7.05-1.02,7.31-.76Z"/>
  <path d="M291.67,331.52c.12.77-.07,1.06-.57,1.59-.31.33-5.59,3.23-6.1,3.36-.71.18-.72.18-1.2-.43-.21-.98,7.23-5.14,7.87-4.52Z"/>
  <path d="M197.94,275.61c.13,1.02-.15,1.69-1.28,1.5-.54-.09-5.52-1.74-5.93-1.98-1.19-.71-.82-1.98.53-1.73,2.05.37,4.51,1.88,6.68,2.21Z"/>
  <path d="M56.57,276.79c.1,2.26,1.02,4.56,1.42,6.68.25,1.35-1.04,1.72-1.74.53-.59-1-2.5-8.06.32-7.21Z"/>
  <path d="M59.93,288.21c.52-.11.86.47,1.18.78.53.52,4.19,4.44,4.33,4.72.36.69.06.75-.41,1.19-1.02.26-5.37-4.4-5.63-5.4-.13-.53.06-1.2.52-1.29Z"/>
  <path d="M93.46,305.2c.61-.19,6.14.18,7.03.33.52.09,1.11.38.98.98-.25,1.19-6.99.51-8.27.01-.69-.45-.41-1.11.26-1.32Z"/>
  <path d="M339.71,296.08c-.76-.8,4.8-5.97,5.79-6.22.5-.13,1.26.1,1.28.51.03.46-6.34,6.48-7.08,5.71Z"/>
  <path d="M80.23,303.93l.16-1.17c.21-.28.42-.37.77-.38.31,0,5.4,1.36,5.93,1.57.47.18,1.12.3.99.98-.32,1.57-6.76-.51-7.85-1Z"/>
  <path d="M195.59,345.7c1.16-1.19,4.04,5.36,5.5,5.71-2.01,3.38-6.23-4.97-5.5-5.71Z"/>
  <path d="M193.89,234.71c1.08-.17,1.66.45.89,1.3-.22.24-5.06,3.6-5.38,3.69-1.51.43-2.24-.38-.8-1.6.61-.51,4.82-3.31,5.29-3.39Z"/>
  <path d="M65.44,240.16c.53-.13.97.45.98.97,0,.32-2.61,5.23-2.98,5.7-1.04,1.33-1.99.87-1.57-.78.19-.74,3.16-5.8,3.57-5.89Z"/>
  <path d="M195.97,341.37c-2.84.56-1.19-5.69-.48-6.98.63-1.15,1.71-.47,1.6.77-.17,1.79-1.11,4.25-1.11,6.21Z"/>
  <path d="M378.3,248.04c.27.26-2.47,6.41-2.8,6.84-.4.52-.58.77-1.33.64-.74-.55-.46-.49-.31-1.08.24-.94,3.13-7.67,4.44-6.4Z"/>
  <path d="M183.58,242.13l.98.6c.1.36-.05.66-.2.98-.12.25-3.17,3.87-3.58,4.29-1.4,1.45-2.14.57-1.43-1.04.29-.67,3.79-4.73,4.23-4.83Z"/>
  <path d="M351.53,209.06c0,.56.15,1.02-.39,1.38-.39.27-5.58-.08-6.53-.18-1.67-.18-1.88-1.32-.37-1.59,2.24-.4,5.03.29,7.28.39Z"/>
  <path d="M377.91,222.45c.64-.04.91-.14,1.36.41.2.24,2.55,5.41,2.57,5.73.1,1.49-.76,1.79-1.65.44-.55-.84-2.84-6-2.28-6.57Z"/>
  <path d="M205.24,229.15l.6.98c0,.53-.28.67-.65.94-.23.17-4.93,2.15-5.26,2.23-.52.13-1.05.13-1.2-.42-.47-1.79,5.32-2.87,6.5-3.73Z"/>
  <path d="M330.65,210.63l.17-1.2.48-.31c.97.34,7.69-1.45,7.22.52-.07.3-1.91.99-2.16.99h-5.71Z"/>
  <path d="M60.51,251.98c.36.35-1.78,7.33-2.95,7.08-1.78-.38,1.35-5.79,1.33-6.85l1.61-.23Z"/>
  <path d="M233.39,354.76c1.48,1.46-5.31,2.78-6.12,2.77-1.04,0-1.9-.66-1.11-1.6l7.23-1.18Z"/>
  <path d="M69.53,236.18l-.94.04c-.58-.46-.63-.49-.43-1.2.21-.75,3.6-5.65,4.36-5.49.44.09.68.78.53,1.31-.3,1.08-3.27,3.76-3.52,5.34Z"/>
  <path d="M69.78,297.26c1.01.52,6.35,2.54,6.09,3.74-.11.5-.78.6-1.29.53-.7-.11-4.9-2.49-5.22-3.07l.42-1.19Z"/>
  <path d="M79.29,220.14c.71-.19.9.03,1.31.54.14.68-3.95,5.42-4.52,5.31-.58-.47-.63-.49-.43-1.2.18-.63,3.06-4.49,3.64-4.64Z"/>
  <path d="M114.07,305.53c.16.46-.17,1.58-.59,1.58h-6.89c-.16-.46.17-1.58.59-1.58h6.89Z"/>
  <path d="M215.67,225.6c1.14,1.16-4.63,3.35-5.4,3.47-.7.11-.85.05-1.29-.52-.32-1.49,6.39-3.25,6.69-2.95Z"/>
  <path d="M204.87,353.59c.96.34,6.33,1.28,6.07,2.54-.42,1.99-9.23-1.72-6.07-2.54Z"/>
  <path d="M203.06,324.83c.71.73-2.88,5.38-4.13,5.12-.74-.58-.48-.46-.28-1.05.33-.95,3.57-4.94,4.4-4.07Z"/>
  <path d="M215.53,356.39c.81-.25,6.33-.47,6.04.92-.17.83-4.86.75-5.71.59-1.14-.2-1.38-1.18-.33-1.51Z"/>
  <path d="M68.87,188.88l77.7-14.86-11.21-53.4-79.62,7.88,13.12,60.38Z" style="fill: #fff;"/>
  <path d="M253.07,170.46c.44-1.9.98-8.91,1.94-10.07.81-.98,4.65-.65,4.79.09l-3.95,20.44-4.96-.21-3.14-10.25c-.52,0-1.49,9.25-1.97,10.24-.53,1.07-3.87,1.11-4.36.42-.71-1,2.91-18.18,3.36-20.71,6.52-2.99,6.02,4.56,7.44,8.73.18.52.11,1.2.84,1.33Z"/>
  <path d="M268.33,159.53c14.7-2.51,10.55,20.97-.1,21.95-14.52,1.34-9.21-20.36.1-21.95ZM268.72,164.63c-4.39.97-6.41,14.91.48,11.52,2.99-1.47,5.71-12.89-.48-11.52Z"/>
  <path d="M306.57,161.07l3.04,21.23-4.98.2-1-4.58-5.8.09c-1.06.36-1.43,3.45-2.49,3.81-.66.23-4.18.06-4.46-.34l.3-1.45,9.92-18.43c1.65-1.76,3.43-.48,5.46-.53ZM303.48,173.61c-.13-1.78-.29-3.53-.4-5.32-.03-.44.26-1.08-.39-.97l-2.76,6.3h3.54Z"/>
  <path d="M285.37,173.61c1.14.22.63-.33.89-.86.95-1.95,4.79-10.64,5.78-11.56,1.3-1.2,3.23-.36,4.73-.16.17.67-.09,1.23-.29,1.84-.9,2.69-7.17,14.86-8.82,17.17-1.48,2.07-4.85,2.1-6.56.39l-1.47-19.84c.42-.61,4.63-.75,5.14.42l.59,12.6Z"/>
  <path d="M282.51,98.5c7.31-.94,7.18,5.7,5.5,11.01-5.38,17-29.36,10.31-26.57-6.09.77-4.55,3.38-2.71,6.39-2.64,6.69.15,9.05-1.55,14.69-2.28ZM266.6,104.96c3.07,3.19,9.88,1.29,13.52-.19,2.33-.94,9.33-4.92,2.73-4.35-5.41.47-11.24,3.92-17.18,1.92-.13.96.27,1.94.92,2.62ZM284.57,112.96c.93-1.54-3.47-1.21-4.33-.99s-8.65,4.73-7.47,5.72c2.39.21,4.72-.2,6.9-1.17,2.02-.9,3.21-2.35,4.9-3.57Z"/>
  <path d="M312.83,97.3c.56-.09,1.16-.25,1.69.1.57.51.54.69-.02,1.19-.65.59-3.16,1.3-4.46,2.24-1.41,1.02-3.44,4.52-4.99,2.88-.34-1.73,6-6.13,7.78-6.4Z"/>
  <path d="M291.57,63.84c5.39-.86,10.53,3.73,8.8,9.19h-1.63c-1.35-4.81-2.89-7.76-8.36-5.66-1.33.51-2.58,2.25-4.04,1.12-1.41-1.99,3.68-4.4,5.24-4.65Z"/>
  <path d="M483.05,104.71c1.19,1.57,9.93,6.04,9.79,7.61-.69,1.01-1.47,3.27-2.98,2.73-1.8-1.44-13.89-8.67-14.23-9.84-.44-1.53,1.2-3.61,2.16-4.77l12.74.33-8.09-5.91c-.36-.75,1.4-3.71,2.39-3.96,1.79-.16,11.58,8.91,14.18,9.86,1.64,1.8-.43,4.06-2.13,4.93l-13.83-.97Z"/>
  <path d="M497.51,76.84c16.4-2.82,14.2,22.61-.7,19.81-11.33-2.13-8.6-18.21.7-19.81ZM497.11,81.95c-5.09,1.16-3.64,10.4,2.65,10.13,6.97-.3,5.67-12.02-2.65-10.13Z"/>
  <path d="M521.25,70.83l-10.18-17.22c-.19-1.3,2.27-3.96,3.36-4.77l18.22,6.44-2.35,3.95c-1.19.74-2.69-.41-3.75-.9l-3.71,4.88c-.13.77,2.3,2.07,1.88,3.78-.15.62-2.85,4.27-3.47,3.84ZM522.82,56.66l-5.51-1.57,3.35,5.11c.39-.55,2.61-3.1,2.17-3.53Z"/>
  <path d="M512.97,73.59l-8.5-11.8c-.42-1.51,2.36-3.26,3.19-4.33l10.93,16.26c.67,1.66-1.82,5.59-3.78,5.37-5.02-1.74-10.95-2.73-15.82-4.69-.63-.25-1.39-.37-1.72-1.06-.21-.74,1.96-4.45,2.91-4.46l12.81,4.72Z"/>
  <polygon points="68.87 188.88 55.74 128.5 135.36 120.63 146.57 174.02 68.87 188.88"/>
  <path d="M102.65,133.45v8.07c0,4.15-4.89,9.41-8.3,11.39-.63.36-5.03,1.96-4.3,2.59,5.32-.42,11.34,2.26,14.5,6.57,1.2,1.63,4.49,9.73,5,9.97.75.36.6-.53.58-.97-.09-1.97-.53-3.75-.41-5.93.42-7.77,4.55-11.73,11.44-14.56.3-.96-2.13-.54-2.85-.69-4.84-.98-9.6-3.71-11.87-8.21-1.16-2.3-1.7-5.54-2.91-7.72-.25-.46.02-.66-.88-.5Z"/>
  <path d="M440.52,231.9c.26-2.45-.45-4.3-3.27-3.46-3.32.99-6.67,14.86-1.67,14.91,2.99.03,3.11-4.27,5.73-3.41,3.36,1.11-1.45,6.56-3.73,7.34-10.31,3.52-9.7-7.87-7.81-14.51,1.29-4.52,4.57-9.44,9.78-9.55,5.97-.13,7.05,8.93.97,8.68Z"/>
  <path d="M473.59,243.71c-8.82,7.25-9.82-6.83-3.23-8.95,1.98-.64,5.71.2,4.77-2.61-.86-2.57-6.24,2.24-6.67-.46-.5-3.21,5.18-4.52,7.68-4.1,5.17.87,1.16,10.14,1.36,13.17.06.95.86,1.43.83,2.32-.08,2.28-4.31,3.11-4.74.63ZM474.38,237.41c-3.05-1.09-7.04,4.58-2.98,4.31,1.68-.11,2.87-2.78,2.98-4.31Z"/>
  <path d="M514.94,234.65c-.12,2.04-.33,4.46,2.47,3.87,1.12-.24,4.03-3.99,4.55-.43s-9.01,7.29-10.69.82c-1.13-4.33,1.01-13.15,6-14.33,4.83-1.14,6.91,2.24,6.29,6.69-.61,4.36-5.37,3.2-8.63,3.38ZM520.01,231.05c.57-5.07-4.16-3.35-4.67.45l4.67-.45Z"/>
  <path d="M457.49,239.02c-.42,2.05.4,4.14,2.83,3.44.83-.24,3.49-3.96,4.16-.43.4,2.12-3.45,4.17-5.29,4.4-8.66,1.07-5.76-14.32-.57-17.12s8.7.4,7.8,5.83c-.79,4.76-5.51,2.83-8.92,3.87ZM462.91,234.99c.73-4.99-4.37-3.26-4.67.45l4.67-.45Z"/>
  <path d="M511.4,225.6c.64.66-5.88,14.45-6.5,16.53-.62,1.07-3.19,1.06-4.13.6-.86-.42-.96-2.58-1.13-3.6-.24-1.49-1.38-11.82-1.06-12.35.57-.93,2.77-.83,3.77-.79l.4,6.89.78,4.14,4.14-11.02,3.74-.39Z"/>
  <path d="M487.38,227.17c4.88-1.23,4.11,4.45-.75,3.59l-1.51,8.84,3.07.75c2.51,3.6-3.29,4.49-5.66,3.7-2.61-.88.19-11.08.13-13.33-1.81.73-2.44-.27-1.89-2.09.42-1.36,2.2-1.16,2.59-1.55.83-.82.06-5.43,2.67-5.82,3.14-.48,1.23,4.06,1.36,5.91Z"/>
  <path d="M446.77,246.81c-.8.07-3.22.38-3.44-.57l2.39-15.64c.44-1.55,3.72-1.59,4.05.12,1.7-1.01,3.2-2.38,4.75-.39.62,3.12-2.57,2.65-3.98,3.51-2.59,1.59-2.44,10.19-3.77,12.97Z"/>
  <path d="M530.19,215.43c1.31-.38,2.5.37,2.83,1.67-1.37,4.47-1.05,10.97-2.51,15.21-.5,1.45-3.17,2.9-3.7,1.3-.11-.63-.11-1.28-.08-1.92.14-3.28.97-10.13,1.64-13.34.21-1.03.68-2.59,1.82-2.92Z"/>
  <path d="M496.38,226.44c.1,1.08.12,2.2.05,3.29-.18,2.69-1.09,9.95-1.83,12.35-.47,1.51-2.03,1.63-3.42,1.18-1.29-.41-.11-2.41.03-3.39.65-4.47.79-9.31,2.23-13.52.82-.69,2.05-.3,2.94.1Z"/>
  <path d="M527.44,236.29c3.61-.65,4.01,5.52.29,5.41-3.19-.09-3.34-4.86-.29-5.41Z"/>
  <path d="M494.76,220.15c3.99-.84,3.8,5.77-.31,4.48-2.41-.76-1.89-4.02.31-4.48Z"/>
  <path d="M159.75,311.43c3.12-.18,7.34-.21,9.01,3.01,1.51,2.92-.6,3.75-.92,5.61-.17.96.55,1.91-.03,3.19-.48,1.08-2.5,2.19-3.72,1.99.54,4.63-1.97,5.74-6.11,5.49-1.34-.08-7.32-1.04-8.37-1.47-4.18-1.7-2.64-8.18-1.8-11.45,1.88-7.35,4.32-6.58,7.78-11.51,1.37-1.95,2.07-7.11,5.63-5.59,3.92,1.68.47,8.46-1.47,10.73Z"/>
  <path d="M147.51,310.29l-3.81,16.79c-1.16,2.13-5.85.65-5.58-2.02,1.26-2.96,1.94-12.68,4.1-14.43,1.48-1.2,3.59-.94,5.29-.35Z"/>
  <path d="M168.37,288.95c-.71.44-12.12-1.22-13.9-1.51-.8-1.28.33-1.65,1.54-1.63,2.67.03,8.71.74,11.41,1.23,1.12.2,1.68,1.46.95,1.92Z"/>
</svg>