<?xml version="1.0" encoding="UTF-8"?>
<svg id="Layer_1" data-name="Layer 1" xmlns="http://www.w3.org/2000/svg" viewBox="0 0 600 400">
  <path d="M264.7,140.15c36.26-3.21,62.83,29.11,53.7,64.12-10.09,38.68-60.07,49.79-86.1,19.27-25.37-29.74-7.17-79.88,32.4-83.39ZM300.51,188.87c-.66-.65-10.44-3.18-12.67-4.19-6.46-2.92-10.52-7.44-13.06-14.02-.85-2.19-2.38-10.25-3.5-11.08-1.29-.96-1.92-.36-2.54.86-1.41,2.8-2.03,8.08-3.46,11.54-2.98,7.21-6.46,10.47-13.71,13.37-2.16.86-10.44,2.74-11.37,3.63-1.71,1.65,1.24,2.83,2.51,3.34,10.76,4.28,17.35,3.92,22.57,16.18,1.07,2.52,2.91,10.95,4.07,12.17.79.83,1.34.83,2.12,0,1.13-1.19,2-7.33,2.68-9.4,2.55-7.77,7.53-13.1,15.1-16.14,2.11-.85,11.29-2.86,11.72-4.55.11-.46-.13-1.37-.46-1.69Z"/>
  <polygon points="183.55 204.6 183.55 149.19 202.71 149.19 202.51 235.84 184.18 235.84 146.06 181.69 146.06 235.84 127.1 235.84 126.48 235.22 126.48 149.82 127.1 149.19 145.02 149.19 183.55 204.6"/>
  <path d="M440.58,293.75h27.29c3.28,0,3.23,5.52,3.12,7.7-.97,19.53-5.04,39.91-6.28,59.54.16,1.04-2.44,3.58-3.09,3.58h-23.95l5.84,15.24-.59,1.46-42.32.17-.79-1.63c.11-.48,1.04-.89,1.51-.99,2.3-.51,12.13.4,12.97-.15l3.8-14.11h-38.95c-1.24,0-3.94-3.66-3.15-5.22l3.78-30.61c-6.8.29-12.95-4.69-13.69-11.51.72-12.63-1.14-26.66-.07-39.12.52-6.05,4.68-10.7,10.64-11.86h53.74c3.44-.26,10.21,6.42,10.21,9.37v18.12ZM388.86,326.31c1.1,1.56,2.82,9.88,4.09,10.3.24.08.49.09.75.06,1.23-.13,9.58-9.4,11.77-10.35,9.9-1.85,31.15,5.4,32.61-9.46,1.21-12.23-.91-26.32.02-38.76-.02-4.49-4.18-8.86-8.56-9.36-16.66,1.12-35.25-1.48-51.67-.02-4.18.37-8.48,3.85-8.94,8.14.88,13.03-1.16,27.57-.02,40.43.89,9.92,12.67,9.21,19.94,9.01ZM467.98,296.76l-3.65-.52-6.66,65.82c1.56-.02,3.17.42,4.19-1.01l6.64-60.86-.52-3.43ZM456.41,351.65h-77.07c.47,1.99-2.29,10.41,1.04,10.41h75.19l.83-10.41Z"/>
  <path d="M392.05,235.84l29.58-86.24,23.35-.44,30.6,86.68h-19.58c-1.92-4.11-2.79-10.33-4.79-14.17-.24-.46-.31-1-.9-1.18l-33.52.18c-1.77,4.21-2.63,9.67-4.51,13.73-.27.59-.52,1.05-1.06,1.44h-19.16ZM422.67,202.93h21.87l.46-.86-11.09-32.88-11.24,33.74Z"/>
  <path d="M338.31,149.19l21.25,65.41,21.66-65.41h19.37l-29.2,85.99-1.4.68c-6.55-.65-14.5.79-20.88,0-.46-.06-.93.03-1.23-.43l-28.95-86.24h19.37Z"/>
  <path d="M349.65,18.46c.71-.21,1.43-.17,2.02.32l22.56,22.46c1.51.39,3.27-2.66,5.23-2.37,2.23.33,3.99,3.23,5.31,3.91,1.04.53,3.99-3.41,4.9-4.19-7.43-9.94,4.83-17.37,11.27-6.6,4.89,8.17-2.52,14.7-9.3,8.48l-4.37,4.36c1.66,1.97,6.48,6.31,5.66,8.97-.32,1.04-2.66,2.72-2.15,3.72l22.67,23.22-.34,1.6-12.95,12.9-1.35.14-23.23-22.66-.83-.03c-3.93,4.16-6.31.03-9.42-2.62l-1.77,1.49c2.24,3.73,2.88,8.07,2.41,12.39-.2,1.78-.63,4.8-3.05,4.44-1.39-.21-8-7.42-9.6-8.75-.28,0-3.53,3.75-3.73,4.17-.47.96,0,2.13-1.24,2.92-2.49,1.58-5.15-1.18-3.59-3.59.63-.97,1.99-.94,2.97-1.61,1.16-.79,2.53-2.89,3.28-4.13-.18-1.03-7.37-6.63-8.09-8.19-1.86-4.02,6.78-4.33,9.18-4.18,1.49.1,2.76.36,4.16.83,1.97.67,4.26,3.25,5.55,1.06-1.16-2.45-5.03-3.98-4.44-6.98.26-1.35,1.97-2.36,1.4-3.63l-23.09-23.23.34-1.17c2.78-1.75,11.54-12.82,13.66-13.45ZM350.03,21.75l-11.07,11.07,10.23,10.12,11.37-11.07c.16-.91-9.09-9.04-10.54-10.12ZM362.53,33.83l-11.07,11.07,9.34,9.73,11.45-11.45-9.73-9.34ZM388.36,59.24l-11.09,11.43,9.78,9.78,11.45-11.45c-1.39-1.11-9.34-9.9-10.14-9.76ZM363.52,84.41v-6.25c0-.8-1.39-3.88-1.91-4.76-3.02-5.13-10.15-7.56-15.58-4.83l16.66,16.25.83-.42ZM400.05,71.33l-11.12,11c1.6,1.27,9.2,9.98,10.56,9.75l11.09-11c-3.06-2.3-6.37-7.4-9.35-9.4-.42-.28-.61-.5-1.18-.35Z"/>
  <path d="M130.12,276.77l61.99-.11c4.64.4,6.8,2.6,8,6.99l13.02,90.31c.16,3.2-1.55,6.35-4.58,7.5l-64.39.21c-3.25-.19-5.96-2.37-7.19-5.31-4.64-31.37-9.3-62.92-12.56-94.45.66-2.84,2.98-4.47,5.7-5.14ZM127.86,280.54c-1.02,1.1-1.08,3.23-.96,4.66,4.85,28.37,6.62,57.92,11.73,86.17.71,3.91,1.11,7.33,5.95,7.8h62.12c2.3,0,4.01-2.61,3.94-4.79l-13.04-89.89c-.28-2.9-2.55-5.2-5.49-5.34l-62.23.3c-.6.32-1.58.62-2.03,1.1Z"/>
  <path d="M138.03,37.23l68.22-.1c6.1,1.01,10.82,6.13,11.47,12.28l-.2,71.06c-1.05,2.3-3.68,2.79-5.8,1.59-6.36-4.76-12.45-10.66-19.4-14.34l-53.55-.19c-6.34-.83-11.25-6.42-11.87-12.7-1.42-14.28,1.01-30.84.04-45.36,1.01-6.03,5.02-10.88,11.09-12.23ZM215.21,119.41V49.42c0-4.8-6.05-9.46-10.61-9.81-20.91-1.58-43.84,1.18-64.96.06-4.95.82-9.34,4.53-9.86,9.72-1.45,14.38,1.12,31.2.03,45.84.53,5.29,4.96,9.41,10.19,9.81l54.08.07,20.09,14.92,1.03-.64Z"/>
  <path d="M286.33,299.67l47.08.24c2.94,1.67,4.82,3.87,5.13,7.37,1.05,11.8-.83,25.14,0,37.1-.68,3.58-3.67,6.53-7.28,6.88-13.65,1.34-29.47-1.05-43.36-.01-3.99-.86-6.45-3.69-6.86-7.72-1.16-11.55.86-24.91,0-36.66.46-3.26,2.15-5.95,5.3-7.2ZM287.16,302.17c-2.21.5-3.55,3.88-3.65,5.94.84,11.09-1.07,23.69.02,34.59.35,3.48,2.02,5.72,5.6,6.06,13.07,1.23,28.01-.97,41.28,0,3.21-.16,5.56-2.89,5.62-6.04-.78-11.17.97-23.59,0-34.61-.28-3.19-1.95-5.46-5.21-6.03l-43.66.1Z"/>
  <path d="M283.95,67.96c-3.88.67-7.76,1.17-10.42,4.37s-2.12,6.92-3.34,10.62h-1.22c-.81-8.91-3.35-14.24-13.05-14.99l-.29-1.04c4.54-1.75,9.5-2.02,11.58-7.17,1.12-2.78.62-6.09,2.38-8.44,2.15,3.55,1.14,7.83,4.21,11.2,2.88,3.16,6.9,2.59,9.49,4.26.5.33.81.52.68,1.19Z"/>
  <path d="M249.37,342.91c1.06,4.1,1.04,8.11,5.13,10.5,1.97,1.15,4.19,1.07,6.02,1.9.44.2,1.06.37.53.93-.37.39-5.83.88-8.13,2.91-3.22,2.83-1.8,5.22-3.07,8.17-1.63,3.76-2.33-4.58-2.75-5.66-1.78-4.58-6.29-3.88-9.68-5.32-.46-.19-1.03-.41-.52-.93.7-.72,6.29-.85,8.77-3.53s1.54-5.58,2.56-8.27c.22-.57.54-.82,1.16-.71Z"/>
  <path d="M216.25,251.68c1.89,2.58,1.03,6,4.37,7.7.86.44,6.81,1.61,3.12,3.11-2.46,1.01-4.24.62-5.53,3.64-.35.81-1.45,7.62-3,3.66-.63-1.6-.58-3.65-1.91-5.17-1.55-1.79-4.27-1.64-6-3.15,1.44-1.46,4.48-1.48,5.83-2.91,1.69-1.78,1.58-5.03,3.11-6.88Z"/>
  <path d="M313.11,107.95c-.54-2.87-.69-5.61-3.65-6.97-1.48-.68-4.14-.37-3.85-2.6,3.48-.77,5.33-1.33,6.69-4.77.42-1.06.16-3.69,1.84-3.14.71.23,1.26,4.11,2.49,5.42,1.77,1.87,4.68,1.31,5.64,3.52-2.49,1.78-5.22,1.35-6.62,4.63-.66,1.55-.24,4.19-2.54,3.92Z"/>
  <path d="M301.33,20.96c1.73-.36,3.01.79,4.28,1.8,2.31,1.83,9.34,8.74,11.05,11.03,1,1.33.74,2.43-1.06,1.9l-13.54-12.19-13.3,13.25c-4.75,1.42-.42-3.22.8-4.61,2.26-2.57,7.64-8.3,10.2-10.21.5-.38.89-.82,1.56-.96Z"/>
  <path d="M457.13,102.21c9.1-1.89,10.04,10.84,2.71,11.89-7.7,1.11-9.33-10.52-2.71-11.89ZM461.28,110.73c3.14-2.88-1.24-8.8-4.85-5.47-3.52,3.25,1.39,8.62,4.85,5.47Z"/>
  <path d="M421.01,132.11c-.19-.17-1.28-3.87-1.72-4.74-1.08-2.13-2.78-4.67-4.32-6.51-1.17-1.4-6.35-5.04-4.12-6.64,2.41-1.72,6.74,5.87,7.72,7.61.88,1.56,4.21,8.34,4.03,9.67-.08.54-1.35.83-1.6.61Z"/>
  <path d="M319.67,263.85c5.38-.95,5.67,6.03,1.9,6.89-5.25,1.2-6.64-6.06-1.9-6.89Z"/>
  <path d="M331.73,370.49c5.37-1.6,6.91,5.47,2.64,6.81-4.6,1.45-6.25-5.74-2.64-6.81Z"/>
  <path d="M449.75,45.88c.76,5.72,4.49,11.13,9.03,14.51.47.35,4.64,2.32,3.88,2.98-6.87-1.65-12.31-7.6-13.56-14.56-.14-.8-.82-3.32.64-2.94Z"/>
  <path d="M253,290.48c2.21-.62,2,1.17.96,2.64-.45.63-5.85,6.06-6.25,6.24-1.13.52-2.83.3-2.43-1.17.57-1.1,1.82-1.51,2.66-2.35.96-.96,4.38-5.16,5.07-5.36Z"/>
  <path d="M237.6,303.82c2.19-.38,2.25,1.14.73,2.43-.61.51-7.56,4.82-8.02,4.94-1.12.28-2.25-.8-1.17-2.04.64-.74,7.63-5.18,8.45-5.32Z"/>
  <path d="M212.31,317.48c-1.33-1.92,3.86-3.57,5-3.93,1.04-.32,5.78-1.89,6.23-.43.13.77-.09,1-.67,1.41s-8.07,2.94-9.01,3.09c-.38.06-1.41.06-1.56-.14Z"/>
  <path d="M367.56,117.62c4.19-1.24,5.84,4.42,2.22,5.56-4.24,1.33-4.97-4.75-2.22-5.56Z"/>
  <path d="M265.5,275.48c.68-.1,1.02-.04,1.34.61.17.53-.02.91-.19,1.39-.18.5-4.82,6.32-5.2,6.49-.8.37-1.9-.13-1.96-.84-.09-1,4.73-7.46,6.02-7.65Z"/>
  <path d="M403.51,290.83l2.28-3.34c4.54-4.82,12.23-3.36,14.81,2.71,3.34,7.84-4.03,14.44-9.39,18.95-1.16.98-6.51,5.4-7.49,5.4-1.94-.75-3.74-2.41-5.41-3.73-4.41-3.49-11.37-9.21-11.9-15.18-1.06-11.92,12.56-15.3,17.1-4.81Z"/>
  <path d="M133.86,284.26l57.18.13c1.96,1.3,2.03,3.36,2.44,5.47,4.65,23.91,6.01,49.22,10.48,73.26.34,2.08-.29,4.05-2.68,3.98-17.44-1.26-37.02,1.58-54.2,0-4.5-.42-4.49-4.6-5.12-8.21-4.14-23.6-5.96-47.96-10.08-71.61-.09-1.42.53-2.68,1.98-3.01ZM190.22,286.67h-55.82l10.94,76.33.93,1.57h55.2l-11.25-77.9Z"/>
  <path d="M180.84,372.07c.58.18.73,1.24.65,1.82-.05.23-.98.68-1.07.68h-9.16c-.83,0-.83-2.5,0-2.5h9.58Z"/>
  <path d="M172.71,64.62c2.84-8.29,13.83-10.28,18.43-2.39,5.55,9.51-3.69,18.02-10.32,23.63-1.1.93-7.62,6.21-8.34,6.28-1.06.1-7.46-5.21-8.72-6.28-5.08-4.32-11.9-10.42-11.92-17.7-.03-10.03,12.21-15.13,18.78-6.66.79,1.02.95,2.46,2.08,3.12Z"/>
  <path d="M295.2,336.66c-1.96-4.77-.39-16.96,5.4-18.55,6.24-1.71,4.95,6.18,8.57,6.88,2.7.52,3.46-1.45,4.27-3.63s1.13-9.61,4.84-7.15c1.44.95,4.42,10.66,5.05,12.87.49,1.74,1.88,5.78,1.82,7.31-.02.63-1.01,2.27-1.4,2.27h-28.54Z"/>
  <path d="M177.93,323.33h9.16c.72.6.73,1.58.91,2.42,1.47,6.72,3.49,18.56,3.88,25.29.05.95.24,2.08-.62,2.7h-8.75l-5.19-29.41.6-1Z"/>
  <path d="M164.6,331.24h8.33c.4,0,.87,1.04,1.01,1.49,1.1,3.61,2.66,15.19,2.92,19.2.02.38.12.74-.02,1.12l-.58.69h-8.75l-.95-1.55-2.97-19.52,1-1.43Z"/>
  <path d="M183.13,305.41l-9.87,15.44c-3.84,1.06-7.98-.05-11.78.19l-10.63,12.32c-2.86.73-2.01-1.18-.8-2.92,2.75-3.95,6.82-7.99,10.01-11.65,2.44-1.35,10.24,1.14,12.03-.46l7.28-12.3c.54-1.33-2.01.09-2.39.14-1.8.25-2.47-1.17-1.36-2.23.83-.79,8.01-3.57,9.01-2.74.71.59,1.8,8.36,1.22,9.22"/>
  <path d="M159.6,340.82l.55.7,1.71,11.75c-.34,0-.86.46-1,.46h-8.75l-.55-.7c-.08-3.44-1.58-7.52-1.72-10.82-.02-.48.15-1.39.6-1.39h9.16Z"/>
</svg>